<?xml version="1.0" encoding="utf-8"?>
<!-- Generator: Adobe Illustrator 22.0.0, SVG Export Plug-In . SVG Version: 6.00 Build 0)  -->
<svg version="1.1" id="Layer_1" xmlns="http://www.w3.org/2000/svg" xmlns:xlink="http://www.w3.org/1999/xlink" x="0px" y="0px"
	 viewBox="0 0 687.9 865.3" style="enable-background:new 0 0 687.9 865.3;" xml:space="preserve">
<style type="text/css">
	.st0{fill:#d1cec7;}
</style>
<path class="st0" d="M605.8,220.2c-11.4,0-16.3,9.9-14.9,18.6c-5.9,1.9-12.5,1.9-18.4,3.2c-7,1.4-13.8,3.8-20.3,6.9
	c9.9-15,21.1-29.1,33.5-42.2c0.3-0.3,0.5-0.7,0.7-1.1c19.5-0.8,19.2-31.4-0.7-31.4c-17.1,0-19.8,22.5-7.9,29.4
	c-11.5,12.5-22.1,25.9-31.5,40c0-6.7-0.1-13.5-0.3-20.2c11.4-7.2,8.7-29.2-8.2-29.2c-20.2,0-20.3,31.4,0,31.4c0.2,0,0.3,0,0.5,0
	c0.3,8.2,0.3,16.5,0.1,24.7c-0.6,0.2-1.3,0.5-2,1c-22.1,15.9-47.6,27.9-71.7,40.4c-28.5,14.8-57.5,29.1-87.1,41.6
	c1.9-2.4,3.8-4.9,5.6-7.2c10.1-13.1,19.2-27.1,28-41.1c19.3-31,37.2-63,53.8-95.5c4.6-9,9.4-18.2,13.3-27.6c1.5-0.6,2.3-2.1,2.3-3.6
	c11.4-3,22.9-6,34.3-9c2.5,3.2,6.4,5.3,11.7,5.3c20.2,0,20.3-31.4,0-31.4c-11.4,0-16.4,10-14.9,18.8c-9.5,2.5-19.1,5-28.6,7.5
	c4-8.2,9.1-15.8,15.4-22.4c4.3-4.5,9.2-8.5,12.8-13.4c1.2,0.3,2.5,0.5,4,0.5c20.2,0,20.3-31.4,0-31.4c-15.6,0-19.2,18.7-10.7,27.2
	c-3.7,4.9-9.2,8.8-13.2,13.2c-4.8,5.3-9.1,11.2-12.6,17.5c-0.4-17.9,0.7-35.9,3.3-53.6c0.1-0.5,0-1,0-1.4
	c10.1-7.9,6.9-28.4-9.4-28.4c-20.2,0-20.3,31.4,0,31.4c0.5,0,0.9,0,1.4-0.1c-2.3,17.1-3.4,34.3-3.1,51.5
	c-3.9-5.6-7.8-11.1-11.9-16.5c3.3-9.2-1.4-21.6-14.2-21.6c-20.2,0-20.3,31.4,0,31.4c3.9,0,7.1-1.2,9.5-3.1
	c4.9,6.6,9.6,13.3,14.2,20.1c-0.7,0.7-1.3,1.6-1.7,2.7c-8.3,22.7-22.2,45.7-34.1,67.3c-17.1,31-34.9,62-55.7,90.7
	c-2.1,2.9-4.4,6.2-6.8,9.4c14-65.4-4.5-132.4-9.6-198.5c9.2-4.8,18.2-10.1,26.8-15.9c2.6,2.3,6.1,3.7,10.6,3.7
	c21.5,0,21.5-33.4,0-33.4c-13.4,0-18.4,12.9-15.2,22.7c-7.8,5.2-15.9,10.1-24.2,14.5c-0.3-0.3-0.6-0.6-0.9-0.8
	c0.1-0.6,0.1-1.2,0-1.9c-2-13.6-3.1-27.3-3.5-41c10.6-8.4,7.3-30.1-10.1-30.1c-21.5,0-21.5,33.4,0,33.4c0.6,0,1.2,0,1.8-0.1
	c0.5,12.8,1.6,25.5,3.4,38.2c-10-9-20.3-17.8-30.6-26.5c2-9.4-3.2-20.7-15.7-20.7c-21.5,0-21.5,33.4,0,33.4c5.3,0,9.2-2,11.9-5
	c8.9,7.4,17.7,15,26.3,22.8c-9.2,2.2-18.6,3.9-28,5.3c-2.4-4.8-7.1-8.3-14.1-8.3c-21.5,0-21.5,33.4,0,33.4c10.9,0,16.3-8.6,16.1-17
	c10.6-1.6,21.1-3.6,31.5-6.1c5.6,72,27.8,145.7,4,216.4c-0.1,0.1-0.2,0.3-0.2,0.4c-2.4-0.5-4.7-1.1-7-1.8
	c-7.9-8.3-14.5-18.5-20.5-27.3c-14.3-20.6-27.3-42.2-39.7-64c-22.2-39-45.5-79.9-59.5-122.8c-0.1-0.2-0.1-0.3-0.2-0.5
	c5.6-1.3,11.1-2.2,16.7-2.8c2.2,5.4,7.1,9.7,14.8,9.7c21.5,0,21.5-33.4,0-33.4c-10.2,0-15.6,7.6-16.1,15.5
	c-4.9,0.5-9.7,1.3-14.5,2.3c3.1-11.2,5.7-22.5,7.7-33.9c13.9-6.5,11.5-31.9-7.2-31.9c-21,0-21.5,31.8-1.5,33.3
	c-2.1,11.4-4.8,22.7-8,33.8c-8.7-10.3-16.8-21.2-24.2-32.5c6.7-9.7,2.4-26.9-13.1-26.9c-21.5,0-21.5,33.4,0,33.4
	c2.5,0,4.6-0.5,6.5-1.2c7,10.7,14.7,21,22.9,30.8c-6.3-0.1-12.6,0.3-18.8,1.2c-2.3-5.2-7.2-9.1-14.5-9.1c-21.5,0-21.5,33.4,0,33.4
	c10.5,0,15.9-8,16.1-16.1c6.7-0.9,13.5-1.2,20.3-0.9c14.7,44.7,38.9,87.5,62.2,128.2c12.9,22.6,26.4,45,41.6,66.2
	c1.4,2,2.9,4,4.3,6.1c-4-1.8-7.9-3.7-11.7-5.5c-23.1-11.1-45.4-24.1-67.1-37.8c-21.1-13.4-41.8-27.6-61.5-43.1
	c-13-10.3-27.4-21.2-37.1-34.8c0.3-0.5,0.4-1.2,0.4-1.9c0-0.5,0-0.9,0-1.4c0.4-0.1,0.8-0.2,1.2-0.4c4.9-2.8,9.6-5.8,14.3-8.9
	c2.4,1.6,5.4,2.6,9.1,2.6c21.5,0,21.5-33.4,0-33.4c-14.2,0-19,14.5-14.5,24.4c-3.4,2.3-6.9,4.5-10.4,6.6
	c-0.6-15.4-1.8-30.8-3.4-46.1c15-5.8,12.9-32.3-6.3-32.3c-20.8,0-21.5,31.3-2,33.3c1.9,17.7,3.1,35.5,3.6,53.3
	c-14.4-15.1-28.1-30.8-41.2-47c1.8-9.4-3.4-20.4-15.8-20.4c-21.5,0-21.5,33.4,0,33.4c5.2,0,9.1-1.9,11.7-4.8
	c10.8,13.3,22.1,26.2,33.8,38.7c-15-5.3-30.1-10-45.4-14.4c-2.6-4.1-7.1-7-13.4-7c-21.5,0-21.5,33.4,0,33.4c10.9,0,16.2-8.5,16.1-17
	c14.3,4.1,28.4,8.7,42.4,13.6c-5.4,3-10.7,6.1-15.9,9.2c-2-0.9-4.3-1.4-6.9-1.4c-21.5,0-21.5,33.4,0,33.4
	c15.1,0,19.6-16.4,13.5-26.2c6.1-3.6,12.3-7.2,18.5-10.6c10.1,13.5,23.8,24.5,36.9,34.9c20.8,16.6,42.7,31.8,65.2,46
	c22.7,14.4,46.1,28,70.5,39.4c7.6,3.6,15.4,7.1,23.3,10.1c0,0,0,0,0,0c-19.4,2-38.9,2.9-58.4,3.2c-38.4,0.8-80.2,1.8-117.5-8.9
	l7.6-22c0.5,0,1,0.1,1.6,0.1c21.5,0,21.5-33.4,0-33.4c-17.7,0-20.8,22.6-9.4,30.6c-2.6,7.5-5.2,15-7.8,22.5c0,0.1,0,0.2-0.1,0.3
	c-9.6-13.3-19.7-26.4-30.1-39.1c7.4-9.6,3.2-27.6-12.6-27.6c-21.5,0-21.5,33.4,0,33.4c2.2,0,4.1-0.3,5.8-1
	c9.6,11.8,18.9,23.8,27.9,36.1c-17.3-5-35.2-8-53.1-8.9c-1-7.4-6.3-14-15.9-14c-21.5,0-21.5,33.4,0,33.4c8.3,0,13.4-5,15.3-11.1
	c18.9,1,37.6,4.3,55.8,9.9c0.3,0.1,0.6,0.1,0.8,0.2c-11.4,5.5-22.2,12-32.4,19.5c-2.2-1.1-4.8-1.8-7.8-1.8c-21.5,0-21.5,33.4,0,33.4
	c14.8,0,19.4-15.9,13.8-25.7c11.4-8.2,23.6-15.2,36.5-20.9c0.1,0,0.1,0,0.2,0.1c39.3,11.3,83.5,10.3,124,9.4
	c20.2-0.5,40.4-1.4,60.4-3.7c4.6-0.5,10.2-0.8,15.8-1.6c0.4,0.3,0.8,0.5,1.2,0.8c0.4,18.2,4.4,36.9,7.2,54.5
	c5.5,35,12.1,69.7,19,104.4c-2.8,2.1-4.9,4.2-6.4,5.8c-0.7,0.8-1.1,1.4-1.6,2c-32-10.1-46.9-0.2-46.9-0.2s-4.9-36.7-86.1-56
	c43.2,47.3,26.8,51.8,26.8,51.8s-11.8-38.4-96.1-48.2c41.6,25.3,55.3,44.1,55.3,44.1s-45.7-26.2-76.7-21.9
	c14.2,10.1,30.5,21.2,30.5,21.2s-62.7-2.3-90.8,23.1c81.2,0.7,117.8,17,117.8,17s-20.6,19.5-16,28.2c9.4-1.7,41.5-24.8,88.9-5.5
	c4.4,2.5-8.2,0.4-31.4,20.7c-2.1,1.9,14.5,6.7,28.2,6.1l-0.6,0.4c0,0-74.5,23.6-86.4,47.3c2.9,2.5,33.6-14.5,90.6-14.7
	c-37.9,13.6-90.3,43.2-91.2,60.2c4.8,1.3,78.7-2.3,78.7-2.3s-75.2,50.5-75.5,65.6c6.3,0.6,63-12.2,63-12.2s-20.1,54.3,1.3,89.3
	c5.9,0.4,46.5-77.4,46.5-77.4s35.3,25.9,39.4,24.9c4.3-47.3-2.9-81.4-2.9-81.4s45.8,42.3,56.7,47.5c10.7-24.2-24.5-95.5-24.5-95.5
	s23,12.7,44.6,24.4c7.3,31,15.1,62,23.4,92.8c3.8,14,25.6,8.1,21.8-6c-6.5-24.1-12.7-48.4-18.6-72.7c5,2.5,8.6,4.3,10.2,4.9
	c0.4-17.6-9.1-34.1-20.2-47.3c-4.6-20.2-9.1-40.5-13.5-60.8c35.9,4.6,53,27.3,60,30.9c7.2-6.9-5.8-31.4-5.8-31.4
	s40.3-4.8,117.6,18.4c-18.2-32.3-78.4-48.6-78.4-48.6s19.3-5.8,36.1-11.2c-27.9-13.1-80.2-1.7-80.2-1.7s19.3-13.9,67.3-25.7
	c-83.3-15.4-107.4,17.6-107.4,17.6s-14-9.1,42.9-41.3c-32.3-2.1-54.7,1.6-69.9,6.9c-6.2-31.1-12-62.3-17.1-93.6
	c-3.3-20.4-8.2-42.3-7.3-63.2c33.6-13.5,66.3-29.4,98.5-46.1c23.6-12.1,48.6-24,70.5-39.2c0.2,0,0.5,0.1,0.8,0.1
	c1.5,0,2.5-0.7,3.1-1.6c9,3.6,18,7.1,27.1,10.7c0.3,7.6,5.4,14.9,15.1,14.9c20.2,0,20.3-31.4,0-31.4c-7,0-11.6,3.7-13.7,8.7
	c-7.2-2.8-14.4-5.7-21.6-8.5c8.1-4.4,16.7-7.6,25.7-9.2c5.9-1.1,11.9-1.4,17.6-3.2c2.5,3.3,6.5,5.6,11.9,5.6
	C626,251.6,626.1,220.2,605.8,220.2z M389.9,593.6c0.1,0.5,0.2,1,0.3,1.5C389.2,594.3,389.1,593.9,389.9,593.6z M392.2,624.2
	c0,0,0.4,0.1,0.9,0.2c-1.4-1-2.7-2-4.1-3.1c2.3,0.6,4.7,1.1,7.1,1.5c0.4,1.7,0.7,3.3,1.1,5C394.1,625.4,392.2,624.2,392.2,624.2z"/>
</svg>
