<?xml version="1.0" encoding="UTF-8" standalone="no"?>
<!DOCTYPE svg PUBLIC "-//W3C//DTD SVG 1.1//EN"
 "http://www.w3.org/Graphics/SVG/1.1/DTD/svg11.dtd">
<!-- Generated by graphviz version 2.40.1 (20161225.0304)
 -->
<!-- Title: dependencies Pages: 1 -->
<svg width="930pt" height="284pt"
 viewBox="0.00 0.00 930.00 284.00" xmlns="http://www.w3.org/2000/svg" xmlns:xlink="http://www.w3.org/1999/xlink">
<g id="graph0" class="graph" transform="scale(1 1) rotate(0) translate(4 280)">
<title>dependencies</title>
<polygon fill="#ffffff" stroke="transparent" points="-4,4 -4,-280 926,-280 926,4 -4,4"/>
<text text-anchor="start" x="440.0091" y="-42.4" font-family="sans-serif" font-weight="bold" font-size="14.00" fill="#000000">Legend</text>
<polygon fill="#ffffb3" stroke="transparent" points="227,-10 227,-30 247,-30 247,-10 227,-10"/>
<text text-anchor="start" x="250.629" y="-15.4" font-family="sans-serif" font-size="14.00" fill="#000000"> &#160;Declarations</text>
<polygon fill="#8dd3c7" stroke="transparent" points="340,-10 340,-30 360,-30 360,-10 340,-10"/>
<text text-anchor="start" x="363.7251" y="-15.4" font-family="sans-serif" font-size="14.00" fill="#000000"> &#160;Module</text>
<polygon fill="#80b1d3" stroke="transparent" points="426,-10 426,-30 446,-30 446,-10 426,-10"/>
<text text-anchor="start" x="449.7812" y="-15.4" font-family="sans-serif" font-size="14.00" fill="#000000"> &#160;Bootstrap</text>
<polygon fill="#fdb462" stroke="transparent" points="523,-10 523,-30 543,-30 543,-10 523,-10"/>
<text text-anchor="start" x="546.6732" y="-15.4" font-family="sans-serif" font-size="14.00" fill="#000000"> &#160;Providers</text>
<polygon fill="#fb8072" stroke="transparent" points="619,-10 619,-30 639,-30 639,-10 619,-10"/>
<text text-anchor="start" x="642.7258" y="-15.4" font-family="sans-serif" font-size="14.00" fill="#000000"> &#160;Exports</text>
<g id="clust1" class="cluster">
<title>cluster_SharedModule</title>
<polygon fill="none" stroke="#000000" stroke-dasharray="1,5" points="8,-70 8,-268 914,-268 914,-70 8,-70"/>
</g>
<g id="clust2" class="cluster">
<title>cluster_SharedModule_declarations</title>
<polygon fill="none" stroke="#000000" points="28,-78 28,-130 898,-130 898,-78 28,-78"/>
</g>
<g id="clust10" class="cluster">
<title>cluster_SharedModule_exports</title>
<polygon fill="none" stroke="#000000" points="16,-208 16,-260 906,-260 906,-208 16,-208"/>
</g>
<!-- NavbarComponent -->
<g id="node1" class="node">
<title>NavbarComponent</title>
<polygon fill="#ffffb3" stroke="#000000" points="890.0297,-122 767.9703,-122 767.9703,-86 890.0297,-86 890.0297,-122"/>
<text text-anchor="middle" x="829" y="-99.8" font-family="Times,serif" font-size="14.00" fill="#000000">NavbarComponent</text>
</g>
<!-- SharedModule -->
<g id="node7" class="node">
<title>SharedModule</title>
<polygon fill="#8dd3c7" stroke="#000000" points="438.4231,-187 435.4231,-191 414.4231,-191 411.4231,-187 339.5769,-187 339.5769,-151 438.4231,-151 438.4231,-187"/>
<text text-anchor="middle" x="389" y="-164.8" font-family="Times,serif" font-size="14.00" fill="#000000">SharedModule</text>
</g>
<!-- NavbarComponent&#45;&gt;SharedModule -->
<g id="edge1" class="edge">
<title>NavbarComponent&#45;&gt;SharedModule</title>
<path fill="none" stroke="#000000" d="M850.8381,-122.2222C850.8381,-140.8285 850.8381,-167 850.8381,-167 850.8381,-167 448.4248,-167 448.4248,-167"/>
<polygon fill="#000000" stroke="#000000" points="448.4248,-163.5001 438.4248,-167 448.4247,-170.5001 448.4248,-163.5001"/>
</g>
<!-- FooterComponent -->
<g id="node2" class="node">
<title>FooterComponent</title>
<polygon fill="#ffffb3" stroke="#000000" points="749.8809,-122 632.1191,-122 632.1191,-86 749.8809,-86 749.8809,-122"/>
<text text-anchor="middle" x="691" y="-99.8" font-family="Times,serif" font-size="14.00" fill="#000000">FooterComponent</text>
</g>
<!-- FooterComponent&#45;&gt;SharedModule -->
<g id="edge2" class="edge">
<title>FooterComponent&#45;&gt;SharedModule</title>
<path fill="none" stroke="#000000" d="M710.7301,-122.0336C710.7301,-139.0597 710.7301,-162 710.7301,-162 710.7301,-162 448.2141,-162 448.2141,-162"/>
<polygon fill="#000000" stroke="#000000" points="448.2141,-158.5001 438.2141,-162 448.2141,-165.5001 448.2141,-158.5001"/>
</g>
<!-- SearchComponent -->
<g id="node3" class="node">
<title>SearchComponent</title>
<polygon fill="#ffffb3" stroke="#000000" points="613.9201,-122 494.0799,-122 494.0799,-86 613.9201,-86 613.9201,-122"/>
<text text-anchor="middle" x="554" y="-99.8" font-family="Times,serif" font-size="14.00" fill="#000000">SearchComponent</text>
</g>
<!-- SearchComponent&#45;&gt;SharedModule -->
<g id="edge3" class="edge">
<title>SearchComponent&#45;&gt;SharedModule</title>
<path fill="none" stroke="#000000" d="M534.0968,-122.2396C534.0968,-137.5706 534.0968,-157 534.0968,-157 534.0968,-157 448.5283,-157 448.5283,-157"/>
<polygon fill="#000000" stroke="#000000" points="448.5283,-153.5001 438.5283,-157 448.5282,-160.5001 448.5283,-153.5001"/>
</g>
<!-- LanguageSelectorComponent -->
<g id="node4" class="node">
<title>LanguageSelectorComponent</title>
<polygon fill="#ffffb3" stroke="#000000" points="476.3974,-122 293.6026,-122 293.6026,-86 476.3974,-86 476.3974,-122"/>
<text text-anchor="middle" x="385" y="-99.8" font-family="Times,serif" font-size="14.00" fill="#000000">LanguageSelectorComponent</text>
</g>
<!-- LanguageSelectorComponent&#45;&gt;SharedModule -->
<g id="edge4" class="edge">
<title>LanguageSelectorComponent&#45;&gt;SharedModule</title>
<path fill="none" stroke="#000000" d="M389,-122.1061C389,-122.1061 389,-140.991 389,-140.991"/>
<polygon fill="#000000" stroke="#000000" points="385.5001,-140.9909 389,-150.991 392.5001,-140.991 385.5001,-140.9909"/>
</g>
<!-- OmnisearchComponent -->
<g id="node5" class="node">
<title>OmnisearchComponent</title>
<polygon fill="#ffffb3" stroke="#000000" points="275.4692,-122 126.5308,-122 126.5308,-86 275.4692,-86 275.4692,-122"/>
<text text-anchor="middle" x="201" y="-99.8" font-family="Times,serif" font-size="14.00" fill="#000000">OmnisearchComponent</text>
</g>
<!-- OmnisearchComponent&#45;&gt;SharedModule -->
<g id="edge5" class="edge">
<title>OmnisearchComponent&#45;&gt;SharedModule</title>
<path fill="none" stroke="#000000" d="M222.3282,-122.0091C222.3282,-138.0494 222.3282,-159 222.3282,-159 222.3282,-159 329.4442,-159 329.4442,-159"/>
<polygon fill="#000000" stroke="#000000" points="329.4443,-162.5001 339.4442,-159 329.4442,-155.5001 329.4443,-162.5001"/>
</g>
<!-- LabelPipe -->
<g id="node6" class="node">
<title>LabelPipe</title>
<polygon fill="#ffffb3" stroke="#000000" points="108.2606,-122 35.7394,-122 35.7394,-86 108.2606,-86 108.2606,-122"/>
<text text-anchor="middle" x="72" y="-99.8" font-family="Times,serif" font-size="14.00" fill="#000000">LabelPipe</text>
</g>
<!-- LabelPipe&#45;&gt;SharedModule -->
<g id="edge6" class="edge">
<title>LabelPipe&#45;&gt;SharedModule</title>
<path fill="none" stroke="#000000" d="M104.2551,-122.2667C104.2551,-140.5552 104.2551,-166 104.2551,-166 104.2551,-166 329.7263,-166 329.7263,-166"/>
<polygon fill="#000000" stroke="#000000" points="329.7263,-169.5001 339.7263,-166 329.7263,-162.5001 329.7263,-169.5001"/>
</g>
<!-- NavbarComponent  -->
<g id="node8" class="node">
<title>NavbarComponent </title>
<polygon fill="#fb8072" stroke="#000000" points="898.0288,-252 771.9712,-252 771.9712,-216 898.0288,-216 898.0288,-252"/>
<text text-anchor="middle" x="835" y="-229.8" font-family="Times,serif" font-size="14.00" fill="#000000">NavbarComponent </text>
</g>
<!-- SharedModule&#45;&gt;NavbarComponent  -->
<g id="edge7" class="edge">
<title>SharedModule&#45;&gt;NavbarComponent </title>
<path fill="none" stroke="#000000" stroke-dasharray="5,2" d="M438.2827,-172C549.7103,-172 811.4119,-172 811.4119,-172 811.4119,-172 811.4119,-205.7333 811.4119,-205.7333"/>
<polygon fill="#000000" stroke="#000000" points="807.912,-205.7333 811.4119,-215.7333 814.912,-205.7333 807.912,-205.7333"/>
</g>
<!-- FooterComponent  -->
<g id="node9" class="node">
<title>FooterComponent </title>
<polygon fill="#fb8072" stroke="#000000" points="753.8814,-252 632.1186,-252 632.1186,-216 753.8814,-216 753.8814,-252"/>
<text text-anchor="middle" x="693" y="-229.8" font-family="Times,serif" font-size="14.00" fill="#000000">FooterComponent </text>
</g>
<!-- SharedModule&#45;&gt;FooterComponent  -->
<g id="edge8" class="edge">
<title>SharedModule&#45;&gt;FooterComponent </title>
<path fill="none" stroke="#000000" stroke-dasharray="5,2" d="M438.2112,-177C519.155,-177 671.5199,-177 671.5199,-177 671.5199,-177 671.5199,-205.9648 671.5199,-205.9648"/>
<polygon fill="#000000" stroke="#000000" points="668.02,-205.9648 671.5199,-215.9648 675.02,-205.9649 668.02,-205.9648"/>
</g>
<!-- SearchComponent  -->
<g id="node10" class="node">
<title>SearchComponent </title>
<polygon fill="#fb8072" stroke="#000000" points="614.4194,-252 491.5806,-252 491.5806,-216 614.4194,-216 614.4194,-252"/>
<text text-anchor="middle" x="553" y="-229.8" font-family="Times,serif" font-size="14.00" fill="#000000">SearchComponent </text>
</g>
<!-- SharedModule&#45;&gt;SearchComponent  -->
<g id="edge9" class="edge">
<title>SharedModule&#45;&gt;SearchComponent </title>
<path fill="none" stroke="#000000" stroke-dasharray="5,2" d="M438.5507,-182C493.3212,-182 573.9032,-182 573.9032,-182 573.9032,-182 573.9032,-205.8129 573.9032,-205.8129"/>
<polygon fill="#000000" stroke="#000000" points="570.4033,-205.8129 573.9032,-215.8129 577.4033,-205.813 570.4033,-205.8129"/>
</g>
<!-- LanguageSelectorComponent  -->
<g id="node11" class="node">
<title>LanguageSelectorComponent </title>
<polygon fill="#fb8072" stroke="#000000" points="473.897,-252 288.103,-252 288.103,-216 473.897,-216 473.897,-252"/>
<text text-anchor="middle" x="381" y="-229.8" font-family="Times,serif" font-size="14.00" fill="#000000">LanguageSelectorComponent </text>
</g>
<!-- SharedModule&#45;&gt;LanguageSelectorComponent  -->
<g id="edge10" class="edge">
<title>SharedModule&#45;&gt;LanguageSelectorComponent </title>
<path fill="none" stroke="#000000" stroke-dasharray="5,2" d="M389,-187.1061C389,-187.1061 389,-205.991 389,-205.991"/>
<polygon fill="#000000" stroke="#000000" points="385.5001,-205.9909 389,-215.991 392.5001,-205.991 385.5001,-205.9909"/>
</g>
<!-- OmnisearchComponent  -->
<g id="node12" class="node">
<title>OmnisearchComponent </title>
<polygon fill="#fb8072" stroke="#000000" points="270.4699,-252 117.5301,-252 117.5301,-216 270.4699,-216 270.4699,-252"/>
<text text-anchor="middle" x="194" y="-229.8" font-family="Times,serif" font-size="14.00" fill="#000000">OmnisearchComponent </text>
</g>
<!-- SharedModule&#45;&gt;OmnisearchComponent  -->
<g id="edge11" class="edge">
<title>SharedModule&#45;&gt;OmnisearchComponent </title>
<path fill="none" stroke="#000000" stroke-dasharray="5,2" d="M339.7714,-180C276.4206,-180 174.4218,-180 174.4218,-180 174.4218,-180 174.4218,-205.7181 174.4218,-205.7181"/>
<polygon fill="#000000" stroke="#000000" points="170.9219,-205.718 174.4218,-215.7181 177.9219,-205.7181 170.9219,-205.718"/>
</g>
<!-- LabelPipe  -->
<g id="node13" class="node">
<title>LabelPipe </title>
<polygon fill="#fb8072" stroke="#000000" points="100.2606,-252 23.7394,-252 23.7394,-216 100.2606,-216 100.2606,-252"/>
<text text-anchor="middle" x="62" y="-229.8" font-family="Times,serif" font-size="14.00" fill="#000000">LabelPipe </text>
</g>
<!-- SharedModule&#45;&gt;LabelPipe  -->
<g id="edge12" class="edge">
<title>SharedModule&#45;&gt;LabelPipe </title>
<path fill="none" stroke="#000000" stroke-dasharray="5,2" d="M339.528,-173C249.4498,-173 67.875,-173 67.875,-173 67.875,-173 67.875,-205.698 67.875,-205.698"/>
<polygon fill="#000000" stroke="#000000" points="64.3751,-205.698 67.875,-215.698 71.3751,-205.698 64.3751,-205.698"/>
</g>
</g>
</svg>
