<?xml version="1.0" encoding="UTF-8" standalone="no"?>
<!DOCTYPE svg PUBLIC "-//W3C//DTD SVG 1.1//EN"
 "http://www.w3.org/Graphics/SVG/1.1/DTD/svg11.dtd">
<!-- Generated by graphviz version 2.40.1 (20161225.0304)
 -->
<!-- Title: dependencies Pages: 1 -->
<svg width="906pt" height="211pt"
 viewBox="0.00 0.00 906.00 211.00" xmlns="http://www.w3.org/2000/svg" xmlns:xlink="http://www.w3.org/1999/xlink">
<g id="graph0" class="graph" transform="scale(1 1) rotate(0) translate(4 207)">
<title>dependencies</title>
<polygon fill="#ffffff" stroke="transparent" points="-4,4 -4,-207 902,-207 902,4 -4,4"/>
<text text-anchor="start" x="428.0091" y="-42.4" font-family="sans-serif" font-weight="bold" font-size="14.00" fill="#000000">Legend</text>
<polygon fill="#ffffb3" stroke="transparent" points="215,-10 215,-30 235,-30 235,-10 215,-10"/>
<text text-anchor="start" x="238.629" y="-15.4" font-family="sans-serif" font-size="14.00" fill="#000000"> &#160;Declarations</text>
<polygon fill="#8dd3c7" stroke="transparent" points="328,-10 328,-30 348,-30 348,-10 328,-10"/>
<text text-anchor="start" x="351.7251" y="-15.4" font-family="sans-serif" font-size="14.00" fill="#000000"> &#160;Module</text>
<polygon fill="#80b1d3" stroke="transparent" points="414,-10 414,-30 434,-30 434,-10 414,-10"/>
<text text-anchor="start" x="437.7812" y="-15.4" font-family="sans-serif" font-size="14.00" fill="#000000"> &#160;Bootstrap</text>
<polygon fill="#fdb462" stroke="transparent" points="511,-10 511,-30 531,-30 531,-10 511,-10"/>
<text text-anchor="start" x="534.6732" y="-15.4" font-family="sans-serif" font-size="14.00" fill="#000000"> &#160;Providers</text>
<polygon fill="#fb8072" stroke="transparent" points="607,-10 607,-30 627,-30 627,-10 607,-10"/>
<text text-anchor="start" x="630.7258" y="-15.4" font-family="sans-serif" font-size="14.00" fill="#000000"> &#160;Exports</text>
<g id="clust1" class="cluster">
<title>cluster_AdminstrativelistsModule</title>
<polygon fill="none" stroke="#000000" stroke-dasharray="1,5" points="8,-70 8,-195 890,-195 890,-70 8,-70"/>
</g>
<g id="clust2" class="cluster">
<title>cluster_AdminstrativelistsModule_declarations</title>
<polygon fill="none" stroke="#000000" points="624,-78 624,-130 882,-130 882,-78 624,-78"/>
</g>
<g id="clust5" class="cluster">
<title>cluster_AdminstrativelistsModule_imports</title>
<polygon fill="none" stroke="#000000" points="276,-78 276,-130 616,-130 616,-78 276,-78"/>
</g>
<g id="clust8" class="cluster">
<title>cluster_AdminstrativelistsModule_providers</title>
<polygon fill="none" stroke="#000000" points="16,-78 16,-130 268,-130 268,-78 16,-78"/>
</g>
<!-- EulistComponent -->
<g id="node1" class="node">
<title>EulistComponent</title>
<polygon fill="#ffffb3" stroke="#000000" points="874.0014,-122 759.9986,-122 759.9986,-86 874.0014,-86 874.0014,-122"/>
<text text-anchor="middle" x="817" y="-99.8" font-family="Times,serif" font-size="14.00" fill="#000000">EulistComponent</text>
</g>
<!-- AdminstrativelistsModule -->
<g id="node3" class="node">
<title>AdminstrativelistsModule</title>
<polygon fill="#8dd3c7" stroke="#000000" points="499.2049,-187 496.2049,-191 475.2049,-191 472.2049,-187 336.7951,-187 336.7951,-151 499.2049,-151 499.2049,-187"/>
<text text-anchor="middle" x="418" y="-164.8" font-family="Times,serif" font-size="14.00" fill="#000000">AdminstrativelistsModule</text>
</g>
<!-- EulistComponent&#45;&gt;AdminstrativelistsModule -->
<g id="edge1" class="edge">
<title>EulistComponent&#45;&gt;AdminstrativelistsModule</title>
<path fill="none" stroke="#000000" d="M817,-122.2843C817,-143.3211 817,-175 817,-175 817,-175 509.2245,-175 509.2245,-175"/>
<polygon fill="#000000" stroke="#000000" points="509.2246,-171.5001 499.2245,-175 509.2245,-178.5001 509.2246,-171.5001"/>
</g>
<!-- FilistComponent -->
<g id="node2" class="node">
<title>FilistComponent</title>
<polygon fill="#ffffb3" stroke="#000000" points="742.1221,-122 631.8779,-122 631.8779,-86 742.1221,-86 742.1221,-122"/>
<text text-anchor="middle" x="687" y="-99.8" font-family="Times,serif" font-size="14.00" fill="#000000">FilistComponent</text>
</g>
<!-- FilistComponent&#45;&gt;AdminstrativelistsModule -->
<g id="edge2" class="edge">
<title>FilistComponent&#45;&gt;AdminstrativelistsModule</title>
<path fill="none" stroke="#000000" d="M687,-122.0225C687,-139.3734 687,-163 687,-163 687,-163 509.4389,-163 509.4389,-163"/>
<polygon fill="#000000" stroke="#000000" points="509.4389,-159.5001 499.4389,-163 509.4388,-166.5001 509.4389,-159.5001"/>
</g>
<!-- AdminstrativelistsRoutingModule -->
<g id="node4" class="node">
<title>AdminstrativelistsRoutingModule</title>
<polygon fill="#8dd3c7" stroke="#000000" points="607.8229,-122 604.8229,-126 583.8229,-126 580.8229,-122 400.1771,-122 400.1771,-86 607.8229,-86 607.8229,-122"/>
<text text-anchor="middle" x="504" y="-99.8" font-family="Times,serif" font-size="14.00" fill="#000000">AdminstrativelistsRoutingModule</text>
</g>
<!-- AdminstrativelistsRoutingModule&#45;&gt;AdminstrativelistsModule -->
<g id="edge3" class="edge">
<title>AdminstrativelistsRoutingModule&#45;&gt;AdminstrativelistsModule</title>
<path fill="none" stroke="#000000" d="M449.7206,-122.1061C449.7206,-122.1061 449.7206,-140.991 449.7206,-140.991"/>
<polygon fill="#000000" stroke="#000000" points="446.2206,-140.9909 449.7206,-150.991 453.2206,-140.991 446.2206,-140.9909"/>
</g>
<!-- SharedModule -->
<g id="node5" class="node">
<title>SharedModule</title>
<polygon fill="#8dd3c7" stroke="#000000" points="382.4231,-122 379.4231,-126 358.4231,-126 355.4231,-122 283.5769,-122 283.5769,-86 382.4231,-86 382.4231,-122"/>
<text text-anchor="middle" x="333" y="-99.8" font-family="Times,serif" font-size="14.00" fill="#000000">SharedModule</text>
</g>
<!-- SharedModule&#45;&gt;AdminstrativelistsModule -->
<g id="edge4" class="edge">
<title>SharedModule&#45;&gt;AdminstrativelistsModule</title>
<path fill="none" stroke="#000000" d="M359.5544,-122.1061C359.5544,-122.1061 359.5544,-140.991 359.5544,-140.991"/>
<polygon fill="#000000" stroke="#000000" points="356.0544,-140.9909 359.5544,-150.991 363.0544,-140.991 356.0544,-140.9909"/>
</g>
<!-- ApiService -->
<g id="node6" class="node">
<title>ApiService</title>
<ellipse fill="#fdb462" stroke="#000000" cx="206" cy="-104" rx="54.4508" ry="18"/>
<text text-anchor="middle" x="206" y="-99.8" font-family="Times,serif" font-size="14.00" fill="#000000">ApiService</text>
</g>
<!-- ApiService&#45;&gt;AdminstrativelistsModule -->
<g id="edge5" class="edge">
<title>ApiService&#45;&gt;AdminstrativelistsModule</title>
<path fill="none" stroke="#000000" d="M206,-122.0225C206,-139.3734 206,-163 206,-163 206,-163 326.6416,-163 326.6416,-163"/>
<polygon fill="#000000" stroke="#000000" points="326.6416,-166.5001 336.6416,-163 326.6415,-159.5001 326.6416,-166.5001"/>
</g>
<!-- ListService -->
<g id="node7" class="node">
<title>ListService</title>
<ellipse fill="#fdb462" stroke="#000000" cx="79" cy="-104" rx="55.0285" ry="18"/>
<text text-anchor="middle" x="79" y="-99.8" font-family="Times,serif" font-size="14.00" fill="#000000">ListService</text>
</g>
<!-- ListService&#45;&gt;AdminstrativelistsModule -->
<g id="edge6" class="edge">
<title>ListService&#45;&gt;AdminstrativelistsModule</title>
<path fill="none" stroke="#000000" d="M79,-122.2843C79,-143.3211 79,-175 79,-175 79,-175 326.8011,-175 326.8011,-175"/>
<polygon fill="#000000" stroke="#000000" points="326.8011,-178.5001 336.8011,-175 326.801,-171.5001 326.8011,-178.5001"/>
</g>
</g>
</svg>
