<?xml version="1.0" encoding="UTF-8" standalone="no"?>
<!DOCTYPE svg PUBLIC "-//W3C//DTD SVG 1.1//EN"
 "http://www.w3.org/Graphics/SVG/1.1/DTD/svg11.dtd">
<!-- Generated by graphviz version 2.40.1 (20161225.0304)
 -->
<!-- Title: dependencies Pages: 1 -->
<svg width="504pt" height="211pt"
 viewBox="0.00 0.00 504.00 211.00" xmlns="http://www.w3.org/2000/svg" xmlns:xlink="http://www.w3.org/1999/xlink">
<g id="graph0" class="graph" transform="scale(1 1) rotate(0) translate(4 207)">
<title>dependencies</title>
<polygon fill="#ffffff" stroke="transparent" points="-4,4 -4,-207 500,-207 500,4 -4,4"/>
<text text-anchor="start" x="227.0091" y="-42.4" font-family="sans-serif" font-weight="bold" font-size="14.00" fill="#000000">Legend</text>
<polygon fill="#ffffb3" stroke="transparent" points="14,-10 14,-30 34,-30 34,-10 14,-10"/>
<text text-anchor="start" x="37.629" y="-15.4" font-family="sans-serif" font-size="14.00" fill="#000000"> &#160;Declarations</text>
<polygon fill="#8dd3c7" stroke="transparent" points="127,-10 127,-30 147,-30 147,-10 127,-10"/>
<text text-anchor="start" x="150.7251" y="-15.4" font-family="sans-serif" font-size="14.00" fill="#000000"> &#160;Module</text>
<polygon fill="#80b1d3" stroke="transparent" points="213,-10 213,-30 233,-30 233,-10 213,-10"/>
<text text-anchor="start" x="236.7812" y="-15.4" font-family="sans-serif" font-size="14.00" fill="#000000"> &#160;Bootstrap</text>
<polygon fill="#fdb462" stroke="transparent" points="310,-10 310,-30 330,-30 330,-10 310,-10"/>
<text text-anchor="start" x="333.6732" y="-15.4" font-family="sans-serif" font-size="14.00" fill="#000000"> &#160;Providers</text>
<polygon fill="#fb8072" stroke="transparent" points="406,-10 406,-30 426,-30 426,-10 406,-10"/>
<text text-anchor="start" x="429.7258" y="-15.4" font-family="sans-serif" font-size="14.00" fill="#000000"> &#160;Exports</text>
<g id="clust1" class="cluster">
<title>cluster_RemovalModule</title>
<polygon fill="none" stroke="#000000" stroke-dasharray="1,5" points="18,-70 18,-195 478,-195 478,-70 18,-70"/>
</g>
<g id="clust2" class="cluster">
<title>cluster_RemovalModule_declarations</title>
<polygon fill="none" stroke="#000000" points="322,-78 322,-130 470,-130 470,-78 322,-78"/>
</g>
<g id="clust4" class="cluster">
<title>cluster_RemovalModule_imports</title>
<polygon fill="none" stroke="#000000" points="26,-78 26,-130 314,-130 314,-78 26,-78"/>
</g>
<!-- RemovalComponent -->
<g id="node1" class="node">
<title>RemovalComponent</title>
<polygon fill="#ffffb3" stroke="#000000" points="461.8795,-122 330.1205,-122 330.1205,-86 461.8795,-86 461.8795,-122"/>
<text text-anchor="middle" x="396" y="-99.8" font-family="Times,serif" font-size="14.00" fill="#000000">RemovalComponent</text>
</g>
<!-- RemovalModule -->
<g id="node2" class="node">
<title>RemovalModule</title>
<polygon fill="#8dd3c7" stroke="#000000" points="283.0968,-187 280.0968,-191 259.0968,-191 256.0968,-187 172.9032,-187 172.9032,-151 283.0968,-151 283.0968,-187"/>
<text text-anchor="middle" x="228" y="-164.8" font-family="Times,serif" font-size="14.00" fill="#000000">RemovalModule</text>
</g>
<!-- RemovalComponent&#45;&gt;RemovalModule -->
<g id="edge1" class="edge">
<title>RemovalComponent&#45;&gt;RemovalModule</title>
<path fill="none" stroke="#000000" d="M396,-122.1061C396,-141.3391 396,-169 396,-169 396,-169 293.4751,-169 293.4751,-169"/>
<polygon fill="#000000" stroke="#000000" points="293.4751,-165.5001 283.4751,-169 293.475,-172.5001 293.4751,-165.5001"/>
</g>
<!-- RemovalRoutingModule -->
<g id="node3" class="node">
<title>RemovalRoutingModule</title>
<polygon fill="#8dd3c7" stroke="#000000" points="305.7147,-122 302.7147,-126 281.7147,-126 278.7147,-122 150.2853,-122 150.2853,-86 305.7147,-86 305.7147,-122"/>
<text text-anchor="middle" x="228" y="-99.8" font-family="Times,serif" font-size="14.00" fill="#000000">RemovalRoutingModule</text>
</g>
<!-- RemovalRoutingModule&#45;&gt;RemovalModule -->
<g id="edge2" class="edge">
<title>RemovalRoutingModule&#45;&gt;RemovalModule</title>
<path fill="none" stroke="#000000" d="M228,-122.1061C228,-122.1061 228,-140.991 228,-140.991"/>
<polygon fill="#000000" stroke="#000000" points="224.5001,-140.9909 228,-150.991 231.5001,-140.991 224.5001,-140.9909"/>
</g>
<!-- SharedModule -->
<g id="node4" class="node">
<title>SharedModule</title>
<polygon fill="#8dd3c7" stroke="#000000" points="132.4231,-122 129.4231,-126 108.4231,-126 105.4231,-122 33.5769,-122 33.5769,-86 132.4231,-86 132.4231,-122"/>
<text text-anchor="middle" x="83" y="-99.8" font-family="Times,serif" font-size="14.00" fill="#000000">SharedModule</text>
</g>
<!-- SharedModule&#45;&gt;RemovalModule -->
<g id="edge3" class="edge">
<title>SharedModule&#45;&gt;RemovalModule</title>
<path fill="none" stroke="#000000" d="M83,-122.1061C83,-141.3391 83,-169 83,-169 83,-169 162.7681,-169 162.7681,-169"/>
<polygon fill="#000000" stroke="#000000" points="162.7681,-172.5001 172.7681,-169 162.768,-165.5001 162.7681,-172.5001"/>
</g>
</g>
</svg>
