<?xml version="1.0" encoding="UTF-8" standalone="no"?>
<!DOCTYPE svg PUBLIC "-//W3C//DTD SVG 1.1//EN"
 "http://www.w3.org/Graphics/SVG/1.1/DTD/svg11.dtd">
<!-- Generated by graphviz version 2.40.1 (20161225.0304)
 -->
<!-- Title: dependencies Pages: 1 -->
<svg width="1009pt" height="211pt"
 viewBox="0.00 0.00 1009.00 211.00" xmlns="http://www.w3.org/2000/svg" xmlns:xlink="http://www.w3.org/1999/xlink">
<g id="graph0" class="graph" transform="scale(1 1) rotate(0) translate(4 207)">
<title>dependencies</title>
<polygon fill="#ffffff" stroke="transparent" points="-4,4 -4,-207 1005,-207 1005,4 -4,4"/>
<text text-anchor="start" x="479.5091" y="-42.4" font-family="sans-serif" font-weight="bold" font-size="14.00" fill="#000000">Legend</text>
<polygon fill="#ffffb3" stroke="transparent" points="266.5,-10 266.5,-30 286.5,-30 286.5,-10 266.5,-10"/>
<text text-anchor="start" x="290.129" y="-15.4" font-family="sans-serif" font-size="14.00" fill="#000000"> &#160;Declarations</text>
<polygon fill="#8dd3c7" stroke="transparent" points="379.5,-10 379.5,-30 399.5,-30 399.5,-10 379.5,-10"/>
<text text-anchor="start" x="403.2251" y="-15.4" font-family="sans-serif" font-size="14.00" fill="#000000"> &#160;Module</text>
<polygon fill="#80b1d3" stroke="transparent" points="465.5,-10 465.5,-30 485.5,-30 485.5,-10 465.5,-10"/>
<text text-anchor="start" x="489.2812" y="-15.4" font-family="sans-serif" font-size="14.00" fill="#000000"> &#160;Bootstrap</text>
<polygon fill="#fdb462" stroke="transparent" points="562.5,-10 562.5,-30 582.5,-30 582.5,-10 562.5,-10"/>
<text text-anchor="start" x="586.1732" y="-15.4" font-family="sans-serif" font-size="14.00" fill="#000000"> &#160;Providers</text>
<polygon fill="#fb8072" stroke="transparent" points="658.5,-10 658.5,-30 678.5,-30 678.5,-10 658.5,-10"/>
<text text-anchor="start" x="682.2258" y="-15.4" font-family="sans-serif" font-size="14.00" fill="#000000"> &#160;Exports</text>
<g id="clust1" class="cluster">
<title>cluster_TaxonModule</title>
<polygon fill="none" stroke="#000000" stroke-dasharray="1,5" points="8,-70 8,-195 993,-195 993,-70 8,-70"/>
</g>
<g id="clust2" class="cluster">
<title>cluster_TaxonModule_declarations</title>
<polygon fill="none" stroke="#000000" points="296,-78 296,-130 985,-130 985,-78 296,-78"/>
</g>
<g id="clust7" class="cluster">
<title>cluster_TaxonModule_imports</title>
<polygon fill="none" stroke="#000000" points="16,-78 16,-130 288,-130 288,-78 16,-78"/>
</g>
<!-- TaxonListComponent -->
<g id="node1" class="node">
<title>TaxonListComponent</title>
<polygon fill="#ffffb3" stroke="#000000" points="977.3781,-122 838.6219,-122 838.6219,-86 977.3781,-86 977.3781,-122"/>
<text text-anchor="middle" x="908" y="-99.8" font-family="Times,serif" font-size="14.00" fill="#000000">TaxonListComponent</text>
</g>
<!-- TaxonModule -->
<g id="node5" class="node">
<title>TaxonModule</title>
<polygon fill="#8dd3c7" stroke="#000000" points="519.8175,-187 516.8175,-191 495.8175,-191 492.8175,-187 424.1825,-187 424.1825,-151 519.8175,-151 519.8175,-187"/>
<text text-anchor="middle" x="472" y="-164.8" font-family="Times,serif" font-size="14.00" fill="#000000">TaxonModule</text>
</g>
<!-- TaxonListComponent&#45;&gt;TaxonModule -->
<g id="edge1" class="edge">
<title>TaxonListComponent&#45;&gt;TaxonModule</title>
<path fill="none" stroke="#000000" d="M908,-122.2843C908,-143.3211 908,-175 908,-175 908,-175 529.9068,-175 529.9068,-175"/>
<polygon fill="#000000" stroke="#000000" points="529.9069,-171.5001 519.9068,-175 529.9068,-178.5001 529.9069,-171.5001"/>
</g>
<!-- TaxonCardComponent -->
<g id="node2" class="node">
<title>TaxonCardComponent</title>
<polygon fill="#ffffb3" stroke="#000000" points="820.3117,-122 675.6883,-122 675.6883,-86 820.3117,-86 820.3117,-122"/>
<text text-anchor="middle" x="748" y="-99.8" font-family="Times,serif" font-size="14.00" fill="#000000">TaxonCardComponent</text>
</g>
<!-- TaxonCardComponent&#45;&gt;TaxonModule -->
<g id="edge2" class="edge">
<title>TaxonCardComponent&#45;&gt;TaxonModule</title>
<path fill="none" stroke="#000000" d="M748,-122.0225C748,-139.3734 748,-163 748,-163 748,-163 529.7604,-163 529.7604,-163"/>
<polygon fill="#000000" stroke="#000000" points="529.7605,-159.5001 519.7604,-163 529.7604,-166.5001 529.7605,-159.5001"/>
</g>
<!-- TaxonComparisonComponent -->
<g id="node3" class="node">
<title>TaxonComparisonComponent</title>
<polygon fill="#ffffb3" stroke="#000000" points="657.5378,-122 472.4622,-122 472.4622,-86 657.5378,-86 657.5378,-122"/>
<text text-anchor="middle" x="565" y="-99.8" font-family="Times,serif" font-size="14.00" fill="#000000">TaxonComparisonComponent</text>
</g>
<!-- TaxonComparisonComponent&#45;&gt;TaxonModule -->
<g id="edge3" class="edge">
<title>TaxonComparisonComponent&#45;&gt;TaxonModule</title>
<path fill="none" stroke="#000000" d="M495.945,-122.1061C495.945,-122.1061 495.945,-140.991 495.945,-140.991"/>
<polygon fill="#000000" stroke="#000000" points="492.445,-140.9909 495.945,-150.991 499.445,-140.991 492.445,-140.9909"/>
</g>
<!-- ObservationComponent -->
<g id="node4" class="node">
<title>ObservationComponent</title>
<polygon fill="#ffffb3" stroke="#000000" points="453.7548,-122 304.2452,-122 304.2452,-86 453.7548,-86 453.7548,-122"/>
<text text-anchor="middle" x="379" y="-99.8" font-family="Times,serif" font-size="14.00" fill="#000000">ObservationComponent</text>
</g>
<!-- ObservationComponent&#45;&gt;TaxonModule -->
<g id="edge4" class="edge">
<title>ObservationComponent&#45;&gt;TaxonModule</title>
<path fill="none" stroke="#000000" d="M439.1094,-122.1061C439.1094,-122.1061 439.1094,-140.991 439.1094,-140.991"/>
<polygon fill="#000000" stroke="#000000" points="435.6095,-140.9909 439.1094,-150.991 442.6095,-140.991 435.6095,-140.9909"/>
</g>
<!-- TaxonRoutingModule -->
<g id="node6" class="node">
<title>TaxonRoutingModule</title>
<polygon fill="#8dd3c7" stroke="#000000" points="280.4355,-122 277.4355,-126 256.4355,-126 253.4355,-122 139.5645,-122 139.5645,-86 280.4355,-86 280.4355,-122"/>
<text text-anchor="middle" x="210" y="-99.8" font-family="Times,serif" font-size="14.00" fill="#000000">TaxonRoutingModule</text>
</g>
<!-- TaxonRoutingModule&#45;&gt;TaxonModule -->
<g id="edge5" class="edge">
<title>TaxonRoutingModule&#45;&gt;TaxonModule</title>
<path fill="none" stroke="#000000" d="M210,-122.0225C210,-139.3734 210,-163 210,-163 210,-163 414.2498,-163 414.2498,-163"/>
<polygon fill="#000000" stroke="#000000" points="414.2498,-166.5001 424.2498,-163 414.2498,-159.5001 414.2498,-166.5001"/>
</g>
<!-- SharedModule -->
<g id="node7" class="node">
<title>SharedModule</title>
<polygon fill="#8dd3c7" stroke="#000000" points="122.4231,-122 119.4231,-126 98.4231,-126 95.4231,-122 23.5769,-122 23.5769,-86 122.4231,-86 122.4231,-122"/>
<text text-anchor="middle" x="73" y="-99.8" font-family="Times,serif" font-size="14.00" fill="#000000">SharedModule</text>
</g>
<!-- SharedModule&#45;&gt;TaxonModule -->
<g id="edge6" class="edge">
<title>SharedModule&#45;&gt;TaxonModule</title>
<path fill="none" stroke="#000000" d="M73,-122.2843C73,-143.3211 73,-175 73,-175 73,-175 414.2676,-175 414.2676,-175"/>
<polygon fill="#000000" stroke="#000000" points="414.2676,-178.5001 424.2676,-175 414.2676,-171.5001 414.2676,-178.5001"/>
</g>
</g>
</svg>
