<svg id="Layer_1" data-name="Layer 1" xmlns="http://www.w3.org/2000/svg" xmlns:xlink="http://www.w3.org/1999/xlink" viewBox="0 0 421.87 425.2"><defs><style>.cls-1{fill:none;}.cls-2{fill:#ececec;}.cls-3{fill:url(#linear-gradient);}.cls-4{fill:url(#linear-gradient-2);}.cls-5{fill:url(#linear-gradient-3);}.cls-6{fill:url(#linear-gradient-4);}.cls-7{fill:#00305b;}.cls-8{fill:#fff;}</style><linearGradient id="linear-gradient" x1="199.78" y1="74.61" x2="219.38" y2="264.72" gradientUnits="userSpaceOnUse"><stop offset="0" stop-color="#f0eea5"/><stop offset="0.5" stop-color="#b1d499"/><stop offset="1" stop-color="#88b3e0"/></linearGradient><linearGradient id="linear-gradient-2" x1="193.86" y1="77.77" x2="221.02" y2="264.11" gradientUnits="userSpaceOnUse"><stop offset="0" stop-color="#eae224"/><stop offset="0.23" stop-color="#86c52d"/><stop offset="0.5" stop-color="#13a438"/><stop offset="1" stop-color="#0075be"/></linearGradient><linearGradient id="linear-gradient-3" x1="196.83" y1="119.98" x2="221.63" y2="240.85" gradientUnits="userSpaceOnUse"><stop offset="0" stop-color="#608762"/><stop offset="1" stop-color="#00628e"/></linearGradient><linearGradient id="linear-gradient-4" x1="204.84" y1="145.05" x2="226.87" y2="225.63" gradientUnits="userSpaceOnUse"><stop offset="0" stop-color="#1b5d63"/><stop offset="1" stop-color="#004c73"/></linearGradient></defs><title>Artboard 1</title><rect class="cls-1" width="421.87" height="425.2"/><path class="cls-2" d="M201,274.66c-35-5.68-35-46.5-62.4-62.56-46.09-27-12.68-109.94,34.39-145.28,42.37-31.8,46.4,74.66,113.39,66.74C343.13,127,259.68,284.18,201,274.66Z"/><path class="cls-3" d="M205.06,266.53c-31.85-5.33-38.44-42.42-62.26-55.84-50.73-28.57,7.69-130.81,43.4-134.18,32.15-3,38.28,60.83,92.15,61.7C328.61,139,257.64,275.33,205.06,266.53Z"/><path class="cls-4" d="M207.72,258.34C178,253.28,170.06,216.39,145.9,205c-44.81-21.16-.25-107.37,36.33-112.7s36.67,50,89.22,50.71C315.48,143.61,255.91,266.54,207.72,258.34Z"/><path class="cls-5" d="M211.71,244.75C189,240.28,195.34,220.78,155,194c-31-20.58,10-70.87,37.13-76.71,24.14-5.2,34.23,32.6,67.69,38.81C293.62,162.41,247.72,251.83,211.71,244.75Z"/><path class="cls-6" d="M215.54,231.42c-16.06-2.7-17.26-23.54-33.82-35.17-23-16.12,3.75-52.56,22.36-54.63,17.72-2,16.65,20.48,44.77,28.58C271,176.56,241.37,235.75,215.54,231.42Z"/><path class="cls-7" d="M217.3,216.93c-8.82-3.46-18.75-17.91-21.65-28.85-3.37-12.69,7.66-22.77,20.19-21.74,8.95.73,8.71,10.73,20.33,17C251.59,191.66,229,221.52,217.3,216.93Z"/><path class="cls-7" d="M61.38,327.88c-.24,0-.36-.12-.36-.33V306.64c0-.21.12-.33.36-.33h2.29a.41.41,0,0,1,.39.24l4.68,8.51c.75,1.39,1.87,3.62,2.41,4.77h.09c.55-1.15,1.66-3.38,2.42-4.74l4.7-8.54a.36.36,0,0,1,.39-.24h2.3a.3.3,0,0,1,.33.33v20.91a.3.3,0,0,1-.33.33h-1.9a.31.31,0,0,1-.34-.33v-9.11c0-2.54.1-5.61.19-8.18l-.06,0c-.82,1.63-1.75,3.41-2.75,5.31l-3.77,7a.48.48,0,0,1-.42.24H70.4a.4.4,0,0,1-.39-.24l-3.77-7c-1-1.9-2-3.68-2.75-5.31l-.06,0c.06,2.57.15,5.64.15,8.18v9.11a.3.3,0,0,1-.33.33Z"/><path class="cls-7" d="M91.91,312c3.71,0,6,2,6,5.86v9.05a.39.39,0,0,1-.27.39,18.1,18.1,0,0,1-5.83,1c-3.38,0-6.48-1.35-6.48-4.94,0-3.2,2.62-4.8,6.48-4.8a22,22,0,0,1,3.62.36v-1c0-2.45-1-3.68-3.62-3.68a8.55,8.55,0,0,0-4.28,1.11.29.29,0,0,1-.45-.09l-.88-1.27c-.09-.18-.12-.3,0-.42A10.17,10.17,0,0,1,91.91,312ZM91.82,326a13.3,13.3,0,0,0,3.62-.54v-4.53a21.31,21.31,0,0,0-3.62-.36c-2.74,0-4,1-4,2.69C87.81,325.08,89.5,326,91.82,326Z"/><path class="cls-7" d="M108.84,312c3.71,0,6,2,6,5.86v9.05a.39.39,0,0,1-.27.39,18.08,18.08,0,0,1-5.82,1c-3.38,0-6.49-1.35-6.49-4.94,0-3.2,2.63-4.8,6.49-4.8a22.07,22.07,0,0,1,3.62.36v-1c0-2.45-1-3.68-3.62-3.68a8.55,8.55,0,0,0-4.28,1.11.3.3,0,0,1-.46-.09l-.87-1.27c-.09-.18-.12-.3,0-.42A10.17,10.17,0,0,1,108.84,312ZM108.75,326a13.36,13.36,0,0,0,3.62-.54v-4.53a21.41,21.41,0,0,0-3.62-.36c-2.74,0-4,1-4,2.69C104.74,325.08,106.43,326,108.75,326Z"/><path class="cls-7" d="M120.55,320a.3.3,0,0,1-.33-.33V318a.31.31,0,0,1,.33-.34h7.54a.31.31,0,0,1,.33.34v1.63a.3.3,0,0,1-.33.33Z"/><path class="cls-7" d="M140.49,333.94a11.38,11.38,0,0,1-1.47-.09.35.35,0,0,1-.34-.39V332a.32.32,0,0,1,.37-.36,8.65,8.65,0,0,0,1.17.09c1.54,0,2.33-.87,2.33-3.29V312.65a.33.33,0,0,1,.36-.36h1.78a.32.32,0,0,1,.33.36v15.74C145,332,143.39,333.94,140.49,333.94Zm3.32-24.55a1.48,1.48,0,0,1-1.51-1.48,1.46,1.46,0,0,1,1.51-1.48,1.43,1.43,0,0,1,1.48,1.48A1.45,1.45,0,0,1,143.81,309.39Z"/><path class="cls-7" d="M156.15,312c3.71,0,6,2,6,5.86v9.05a.4.4,0,0,1-.28.39,18,18,0,0,1-5.82,1c-3.38,0-6.48-1.35-6.48-4.94,0-3.2,2.62-4.8,6.48-4.8a22,22,0,0,1,3.62.36v-1c0-2.45-1-3.68-3.62-3.68a8.55,8.55,0,0,0-4.28,1.11.29.29,0,0,1-.45-.09l-.88-1.27c-.09-.18-.12-.3,0-.42A10.17,10.17,0,0,1,156.15,312ZM156.06,326a13.3,13.3,0,0,0,3.62-.54v-4.53a21.31,21.31,0,0,0-3.62-.36c-2.74,0-4,1-4,2.69C152.05,325.08,153.74,326,156.06,326Z"/><path class="cls-7" d="M190.31,312c3.68,0,6.24,2.14,6.24,6.16v9.44a.3.3,0,0,1-.33.33h-1.78c-.24,0-.36-.12-.36-.33v-9.5c0-2.42-1.24-3.86-3.83-3.86a5.78,5.78,0,0,0-3.32,1,7,7,0,0,1,.57,2.87v9.47a.3.3,0,0,1-.33.33h-1.81a.3.3,0,0,1-.33-.33v-9.5c0-2.57-1.18-3.86-3.62-3.86a8.77,8.77,0,0,0-3,.54v12.82c0,.21-.12.33-.36.33h-1.78a.3.3,0,0,1-.33-.33v-14a.41.41,0,0,1,.27-.42,12.64,12.64,0,0,1,5.19-1.18,6.29,6.29,0,0,1,4.31,1.48A7.94,7.94,0,0,1,190.31,312Z"/><path class="cls-7" d="M214.23,320.91c0,.24-.12.36-.33.36H204v1.27c0,2.26,1.69,3.47,3.92,3.47a7.09,7.09,0,0,0,4.61-1.69.33.33,0,0,1,.49.09l.87,1.15a.3.3,0,0,1-.06.48,9,9,0,0,1-6,2.17c-3.26,0-6.37-1.87-6.37-5.67V318c0-4.14,3.08-6,6.4-6s6.3,1.87,6.3,6Zm-6.3-6.72c-2.26,0-3.89,1.17-3.89,3.77v1.26h7.78V318C211.82,315.39,210.13,314.19,207.93,314.19Z"/><path class="cls-7" d="M224.49,325.92c.34,0,.91,0,1.45-.06.24,0,.36.12.36.33v1.6a.33.33,0,0,1-.3.36c-.54,0-1.23.06-1.63.06-3,0-5.25-1.63-5.25-5.34V308.82a.32.32,0,0,1,.37-.37h1.57c.18,0,.3.12.33.34l.21,3.65h3.92a.3.3,0,0,1,.33.33v1.51c0,.24-.12.36-.33.36H221.6v8.11C221.6,324.74,222.62,325.92,224.49,325.92Z"/><path class="cls-7" d="M235.51,328.21a10,10,0,0,1-6-1.93.34.34,0,0,1-.09-.48l.82-1.39c.12-.21.27-.24.48-.09a8,8,0,0,0,4.83,1.69c2,0,3.56-.84,3.56-2.41s-1.87-2.08-3.56-2.42c-2.17-.45-5.88-1.29-5.88-4.79,0-3.08,2.92-4.44,5.94-4.44a10.45,10.45,0,0,1,5.25,1.42.28.28,0,0,1,.12.45l-.82,1.36a.29.29,0,0,1-.45.12,9.11,9.11,0,0,0-4.22-1.11c-2.11,0-3.38.84-3.38,2.2,0,1.66,1.78,2.11,3.92,2.53,2.41.48,5.58,1.18,5.58,4.56C241.63,326.55,239,328.21,235.51,328.21Z"/><path class="cls-7" d="M251.71,312c3.71,0,6,2,6,5.86v9.05a.39.39,0,0,1-.27.39,18,18,0,0,1-5.82,1c-3.38,0-6.49-1.35-6.49-4.94,0-3.2,2.63-4.8,6.49-4.8a22,22,0,0,1,3.62.36v-1c0-2.45-1-3.68-3.62-3.68a8.55,8.55,0,0,0-4.28,1.11.3.3,0,0,1-.46-.09l-.87-1.27c-.09-.18-.12-.3,0-.42A10.17,10.17,0,0,1,251.71,312Zm-2.89-2.62a1.44,1.44,0,1,1,1.41-1.42A1.33,1.33,0,0,1,248.82,309.33Zm2.8,16.68a13.3,13.3,0,0,0,3.62-.54v-4.53a21.31,21.31,0,0,0-3.62-.36c-2.74,0-4,1-4,2.69C247.61,325.08,249.3,326,251.62,326Zm3-16.68a1.44,1.44,0,1,1,1.42-1.42A1.35,1.35,0,0,1,254.61,309.33Z"/><path class="cls-7" d="M268.46,325.92c.33,0,.9,0,1.44-.06.25,0,.37.12.37.33v1.6a.33.33,0,0,1-.3.36c-.55,0-1.24.06-1.63.06-3,0-5.25-1.63-5.25-5.34V308.82a.32.32,0,0,1,.36-.37H265c.18,0,.3.12.33.34l.21,3.65h3.92a.3.3,0,0,1,.33.33v1.51c0,.24-.12.36-.33.36h-3.92v8.11C265.56,324.74,266.59,325.92,268.46,325.92Z"/><path class="cls-7" d="M279.83,312c3.71,0,6,2,6,5.86v9.05a.4.4,0,0,1-.28.39,18,18,0,0,1-5.82,1c-3.38,0-6.48-1.35-6.48-4.94,0-3.2,2.62-4.8,6.48-4.8a22,22,0,0,1,3.62.36v-1c0-2.45-1-3.68-3.62-3.68a8.55,8.55,0,0,0-4.28,1.11.29.29,0,0,1-.45-.09l-.88-1.27c-.09-.18-.12-.3,0-.42A10.17,10.17,0,0,1,279.83,312ZM279.74,326a13.3,13.3,0,0,0,3.62-.54v-4.53a21.31,21.31,0,0,0-3.62-.36c-2.74,0-4,1-4,2.69C275.73,325.08,277.42,326,279.74,326Z"/><path class="cls-7" d="M295.76,328.21c-2.89,0-4.55-1.93-4.55-5.55v-16c0-.21.12-.33.36-.33h1.78a.3.3,0,0,1,.33.33v16.05c0,2.35.82,3.26,2.36,3.26a11.72,11.72,0,0,0,1.35-.09c.24,0,.37.12.37.33v1.54a.37.37,0,0,1-.31.39A15.4,15.4,0,0,1,295.76,328.21Z"/><path class="cls-7" d="M307.62,328.21c-4.07,0-6.63-2.38-6.63-5.91V318c0-3.53,2.56-6,6.63-6s6.64,2.48,6.64,6v4.34C314.26,325.83,311.73,328.21,307.62,328.21Zm0-2.2c2.72,0,4.16-1.45,4.16-3.71V318c0-2.3-1.44-3.77-4.16-3.77s-4.13,1.47-4.13,3.77v4.34C303.49,324.56,304.94,326,307.62,326Z"/><path class="cls-7" d="M331.52,312.29a.32.32,0,0,1,.33.36v14a.42.42,0,0,1-.24.43,14.13,14.13,0,0,1-5.7,1.17c-4,0-6.67-1.9-6.67-6.51v-9.05a.33.33,0,0,1,.36-.36h1.78a.32.32,0,0,1,.33.36v9c0,3.16,1.57,4.37,4.2,4.37a11,11,0,0,0,3.47-.57V312.65a.33.33,0,0,1,.36-.36Z"/><path class="cls-7" d="M342.59,328.21a10,10,0,0,1-6-1.93.34.34,0,0,1-.09-.48l.81-1.39c.13-.21.28-.24.49-.09a8,8,0,0,0,4.82,1.69c2,0,3.56-.84,3.56-2.41s-1.87-2.08-3.56-2.42c-2.17-.45-5.88-1.29-5.88-4.79,0-3.08,2.93-4.44,5.94-4.44a10.45,10.45,0,0,1,5.25,1.42.28.28,0,0,1,.12.45l-.81,1.36a.29.29,0,0,1-.45.12,9.15,9.15,0,0,0-4.23-1.11c-2.11,0-3.38.84-3.38,2.2,0,1.66,1.78,2.11,3.93,2.53,2.41.48,5.58,1.18,5.58,4.56C348.72,326.55,346.12,328.21,342.59,328.21Z"/><path class="cls-7" d="M353,320a.3.3,0,0,1-.33-.33V318a.31.31,0,0,1,.33-.34h7.55a.31.31,0,0,1,.33.34v1.63a.3.3,0,0,1-.33.33Z"/><path class="cls-7" d="M156,348.16c3.68,0,6.25,2.14,6.25,6.16v9.44a.3.3,0,0,1-.33.33h-1.78c-.24,0-.37-.12-.37-.33v-9.5c0-2.42-1.23-3.87-3.83-3.87a5.78,5.78,0,0,0-3.31,1,7,7,0,0,1,.57,2.87v9.47a.3.3,0,0,1-.33.33h-1.81a.31.31,0,0,1-.34-.33v-9.5c0-2.57-1.17-3.87-3.62-3.87a8.74,8.74,0,0,0-3,.55v12.82c0,.21-.12.33-.36.33h-1.78a.3.3,0,0,1-.34-.33v-14a.41.41,0,0,1,.28-.42,12.4,12.4,0,0,1,5.18-1.18,6.32,6.32,0,0,1,4.32,1.48A7.84,7.84,0,0,1,156,348.16Z"/><path class="cls-7" d="M169.05,345.6a1.48,1.48,0,0,1-1.51-1.48,1.46,1.46,0,0,1,1.51-1.48,1.43,1.43,0,0,1,1.48,1.48A1.45,1.45,0,0,1,169.05,345.6Zm-.9,18.49c-.24,0-.37-.12-.37-.33v-14.9a.34.34,0,0,1,.37-.37h1.78a.33.33,0,0,1,.33.37v14.9a.3.3,0,0,1-.33.33Z"/><path class="cls-7" d="M176.23,364.09a.3.3,0,0,1-.33-.33v-14a.43.43,0,0,1,.24-.42,14.92,14.92,0,0,1,5.79-1.18c4,0,6.79,1.9,6.79,6.52v9.08c0,.21-.12.33-.36.33h-1.78a.3.3,0,0,1-.33-.33v-9c0-3.14-1.6-4.35-4.32-4.35a12.42,12.42,0,0,0-3.55.55v12.82c0,.21-.13.33-.37.33Z"/><path class="cls-7" d="M195.51,345.6a1.47,1.47,0,0,1-1.5-1.48,1.45,1.45,0,0,1,1.5-1.48,1.43,1.43,0,0,1,1.48,1.48A1.45,1.45,0,0,1,195.51,345.6Zm-.9,18.49c-.24,0-.36-.12-.36-.33v-14.9a.33.33,0,0,1,.36-.37h1.78a.33.33,0,0,1,.33.37v14.9a.3.3,0,0,1-.33.33Z"/><path class="cls-7" d="M207.49,364.42a10,10,0,0,1-6-1.93.34.34,0,0,1-.09-.48l.81-1.39c.12-.21.27-.24.48-.09a8,8,0,0,0,4.83,1.69c2,0,3.56-.84,3.56-2.41s-1.87-2.09-3.56-2.42c-2.17-.45-5.88-1.29-5.88-4.79,0-3.08,2.93-4.44,5.94-4.44a10.35,10.35,0,0,1,5.25,1.42.28.28,0,0,1,.12.45l-.81,1.36a.3.3,0,0,1-.46.12,9.08,9.08,0,0,0-4.22-1.12c-2.11,0-3.38.85-3.38,2.21,0,1.66,1.78,2.11,3.92,2.53,2.42.48,5.58,1.18,5.58,4.56C213.61,362.76,211,364.42,207.49,364.42Z"/><path class="cls-7" d="M223.51,362.13c.33,0,.91,0,1.45-.06.24,0,.36.12.36.33V364a.33.33,0,0,1-.3.36c-.54,0-1.24.06-1.63.06-3,0-5.25-1.63-5.25-5.34V345a.32.32,0,0,1,.36-.36h1.57a.34.34,0,0,1,.34.33l.21,3.65h3.92a.31.31,0,0,1,.33.34v1.5c0,.25-.12.37-.33.37h-3.92V359C220.62,361,221.64,362.13,223.51,362.13Z"/><path class="cls-7" d="M241.43,357.12c0,.24-.12.36-.33.36h-9.86v1.27c0,2.26,1.69,3.47,3.92,3.47a7.14,7.14,0,0,0,4.62-1.69.32.32,0,0,1,.48.09l.87,1.15a.3.3,0,0,1-.06.48,9,9,0,0,1-6,2.17c-3.26,0-6.37-1.87-6.37-5.67v-4.58c0-4.14,3.08-6,6.4-6s6.3,1.87,6.3,6Zm-6.3-6.73c-2.26,0-3.89,1.18-3.89,3.78v1.26H239v-1.26C239,351.6,237.33,350.39,235.13,350.39Z"/><path class="cls-7" d="M246.72,364.09a.3.3,0,0,1-.33-.33V349.67a.36.36,0,0,1,.24-.39,12.2,12.2,0,0,1,5.16-1.12,22.61,22.61,0,0,1,3.1.24.34.34,0,0,1,.3.39v1.48c0,.24-.12.37-.36.31a18.35,18.35,0,0,0-2.71-.22,9.1,9.1,0,0,0-3.26.61v12.79c0,.21-.12.33-.36.33Z"/><path class="cls-7" d="M260.57,345.6a1.47,1.47,0,0,1-1.51-1.48,1.45,1.45,0,0,1,1.51-1.48,1.43,1.43,0,0,1,1.48,1.48A1.45,1.45,0,0,1,260.57,345.6Zm-.91,18.49c-.24,0-.36-.12-.36-.33v-14.9a.33.33,0,0,1,.36-.37h1.78a.33.33,0,0,1,.33.37v14.9a.3.3,0,0,1-.33.33Z"/><path class="cls-7" d="M273.51,364.42c-4.07,0-6.64-2.38-6.64-5.91v-4.34c0-3.53,2.57-6,6.64-6s6.64,2.48,6.64,6v4.34C280.15,362,277.61,364.42,273.51,364.42Zm-2.9-18.88a1.44,1.44,0,1,1,1.42-1.42A1.35,1.35,0,0,1,270.61,345.54Zm2.9,16.68c2.72,0,4.16-1.45,4.16-3.71v-4.34c0-2.3-1.44-3.78-4.16-3.78s-4.13,1.48-4.13,3.78v4.34C269.38,360.77,270.83,362.22,273.51,362.22Zm2.9-16.68a1.44,1.44,0,1,1,1.41-1.42A1.36,1.36,0,0,1,276.41,345.54Z"/><path class="cls-8" d="M226.48,200.45a37.57,37.57,0,0,1-25.83-.1L198.23,204a33.08,33.08,0,0,0,33.24.32A7.23,7.23,0,0,1,226.48,200.45Z"/><path class="cls-8" d="M194.68,201.71l2-3-7.29-3.77h0a2,2,0,0,0-.91-.22,2,2,0,0,0,0,4,2,2,0,0,0,1.37-.54Z"/><path class="cls-8" d="M194.5,141.69V137a.64.64,0,1,0-1.28,0v6A1.28,1.28,0,0,0,194.5,141.69Z"/><path class="cls-8" d="M196.76,141.69V137a.64.64,0,1,0-1.27,0v6A1.27,1.27,0,0,0,196.76,141.69Z"/><path class="cls-8" d="M192.12,141.69V137a.64.64,0,1,0-1.28,0v6A1.28,1.28,0,0,0,192.12,141.69Z"/><path class="cls-8" d="M199,141.69V137a.64.64,0,1,0-1.28,0v6A1.28,1.28,0,0,0,199,141.69Z"/><path class="cls-8" d="M187.89,140.91h1.05v-3.16h-1.05a1.58,1.58,0,0,0,0,3.16Z"/><path class="cls-8" d="M192.93,150.56l.32.08a5.64,5.64,0,0,0,3.4-.35,6.92,6.92,0,0,1-.2-1.66,6.63,6.63,0,0,1,1.05-3.6l.09-.12h-5a20.38,20.38,0,0,1,.38,3.93C193,149.42,193,150,192.93,150.56Z"/><path class="cls-8" d="M199,153.89a6.73,6.73,0,0,1-1.59-1.81,7.44,7.44,0,0,1-3,.62,7.68,7.68,0,0,1-1.57-.16l-.18,0a19.43,19.43,0,0,1-1,3.64c.28.38.58.74.89,1.09a14.09,14.09,0,0,0,4.07,3.11,7.38,7.38,0,0,1,.2-2.8A7.55,7.55,0,0,1,199,153.89Z"/><path class="cls-8" d="M201.87,161.83a11.78,11.78,0,0,0,2.81-3.22l.08-.13a12.34,12.34,0,0,1-2.08-2l-1.13-1.37a6,6,0,0,1-.72-.23,5.64,5.64,0,0,0-2.11,3.12,5.58,5.58,0,0,0,.09,3.19A14.07,14.07,0,0,0,201.87,161.83Z"/><path class="cls-8" d="M199.27,199.8l1.87-2.82a1.6,1.6,0,1,0-2.22.46,1.62,1.62,0,0,0,.42.2l-1.14,1.7-2.14,3.23-2.42,3.63a1.6,1.6,0,1,0,2.22-.44,1.35,1.35,0,0,0-.42-.2l1.56-2.35Z"/><path class="cls-8" d="M199.68,145h2.83l-.52-1.76v-2.51h5a6.59,6.59,0,0,0,.72-2.73H202v-2.51l.52-1.76h-2.83l.52,1.76v7.76Z"/><path class="cls-8" d="M236.14,140.23a14.28,14.28,0,0,0,2.51-1,12.23,12.23,0,0,0-2.5-1H222.81l3-3.32-.05,0a2.21,2.21,0,0,0-2.72.54,1.3,1.3,0,0,0-.41-.36,1.2,1.2,0,0,0-1.61.49l0,.12a1,1,0,0,1,.24.09,1.09,1.09,0,1,1-1.55.69h0a.18.18,0,0,0-.08-.2.17.17,0,0,0-.21,0h0a1.08,1.08,0,0,1-1.33.26,1.1,1.1,0,0,1-.46-1.48.22.22,0,0,0,0-.08l0,0a1.09,1.09,0,0,1,1.4-.35,1.06,1.06,0,0,1,.45.44,1.88,1.88,0,0,0,.16-.23,1.2,1.2,0,0,0-.44-1.57l.05-.08a1.53,1.53,0,0,0-.63-2.06h0a1.52,1.52,0,0,0-2.06.63.36.36,0,0,0,0,.09,1.2,1.2,0,0,0-1.55.53,1.25,1.25,0,0,0-.09.25,1.12,1.12,0,0,1,.61.12,1.1,1.1,0,0,1,.5,1.36v0l0,.09a1.09,1.09,0,0,1-2-.8h0a.2.2,0,0,0-.09-.2.18.18,0,0,0-.22,0h0a1.09,1.09,0,1,1-.32-1.67,1.07,1.07,0,0,1,.22.15l.07-.11a1.19,1.19,0,0,0-.5-1.6,1.27,1.27,0,0,0-.53-.14,2.21,2.21,0,0,0-1.08-2.55l-.06,0-1.8,7.58,11,5.7C229.05,140.36,236,140.23,236.14,140.23Z"/><path class="cls-8" d="M207.51,143.5a6.83,6.83,0,0,1,2,2.75,4.37,4.37,0,0,1,1.15-.16,4.08,4.08,0,1,1-2.6,7.21,6.66,6.66,0,0,1-3.83,2l.34.39a4,4,0,0,0,3.29,1.25,3.74,3.74,0,0,1-1.31.44l.51.33h0l.23.14.27.16a4,4,0,0,0,4.63-.38,5.24,5.24,0,0,1-1.41,1.64l.57.11a4,4,0,0,0,4.18-2,5.15,5.15,0,0,1-.55,1.72l.07,0a4.05,4.05,0,0,0,3-3.81,5.35,5.35,0,0,1,.31,2l0-.05a4.07,4.07,0,0,0,.71-5,5.3,5.3,0,0,1,1.55,2,4.38,4.38,0,0,0-1.1-5,5.38,5.38,0,0,1,1.93,1.23,5.82,5.82,0,0,0-2.39-4.31,3.94,3.94,0,0,1,1.79.82,9,9,0,0,0-1.31-2.3,3.74,3.74,0,0,1-.3-2.59l-9.63-5A8.4,8.4,0,0,1,207.51,143.5Zm4.53-2.83a1.29,1.29,0,1,1-1.29,1.29A1.29,1.29,0,0,1,212,140.67Z"/><path class="cls-8" d="M203.69,189.9c-1.58,0-4.55-1.28-4.71-1.35A3.71,3.71,0,0,0,194.2,191a3.9,3.9,0,0,0-.11,1.79,2.62,2.62,0,0,1,.73-.9,2.78,2.78,0,0,1,2.32-.58,4.09,4.09,0,0,0-.8,2.43,4.17,4.17,0,0,0,.16,1.13,3.43,3.43,0,0,1,.36-.68,3.52,3.52,0,0,1,2.94-1.58,3.58,3.58,0,0,1,2,.59,3.54,3.54,0,0,1,1.53,3.51,3.72,3.72,0,0,0,.42-.47,6,6,0,0,1,4.55-2.41h.28a9,9,0,0,1,5.2,1.65c-.13-.67-.61-3.57-.64-4.09-.37-6.16,3.78-11.4,9.28-11.69h.56A11.76,11.76,0,0,1,222,175a12.59,12.59,0,0,1,.14-1.85,29,29,0,0,1-5.74-.82,8.12,8.12,0,0,0-2,.69,9.78,9.78,0,0,0-5,6.07,7,7,0,0,1-5.7,10.8Z"/><path class="cls-8" d="M240.66,183.74a10.3,10.3,0,0,1-7.88-7.65,0,0,0,0,1,0,0,10.66,10.66,0,0,1-.28-2.41,10.52,10.52,0,0,1,.17-1.88,8.05,8.05,0,0,0,1.11.08,7.61,7.61,0,0,0,3.64-14.29,7.83,7.83,0,0,0,4-6.59,7.6,7.6,0,1,0-11.75,6.37,7.52,7.52,0,0,1,1.5-1.37,5.66,5.66,0,1,1,8.31-5,6,6,0,0,1-4.4,5.45l-.73.22a7.43,7.43,0,0,0-2.75,1.69l-.06.06-.23.23c-.16.17-.31.34-.45.52a3.77,3.77,0,0,0-.69.06,3.12,3.12,0,0,0-2.56,3.58,3.47,3.47,0,0,0,4,2.38h0a4.34,4.34,0,0,1-.16-.62,5.42,5.42,0,0,1,1.45-4.79,6,6,0,0,1,1.66-1.13,5.67,5.67,0,1,1-4,10.3,24.05,24.05,0,0,1-8.85-12.76,11.08,11.08,0,0,1-15.39,3.42,13.64,13.64,0,0,1-15,6.28h0A13.29,13.29,0,0,1,186.8,164h0l-.31-.19a4,4,0,0,0-5.48,1.57,3.18,3.18,0,0,0-.51,1.62,2.88,2.88,0,0,1,.95-.77,3,3,0,0,1,2.48-.13,4.64,4.64,0,0,0-1.43,1.72A4.72,4.72,0,0,0,182,170a3.36,3.36,0,0,1,1-.94,3.44,3.44,0,0,1,4.14,5.43,4.64,4.64,0,0,0,3.61-2.58,4.22,4.22,0,0,0,.26-.67,10,10,0,0,1,8.75.36,2.06,2.06,0,0,1,.48.21,19.8,19.8,0,0,0,9.5-4.17,26.8,26.8,0,0,0,13.52,3.63c.45,0,.9,0,1.35,0a9.92,9.92,0,0,0,3.48,11.94l.11.06h0a4.74,4.74,0,0,1,6.57,4.36,4.66,4.66,0,0,1-3.15,4.68,5.15,5.15,0,0,0-2.76,1.69,2.51,2.51,0,0,0-.49.68,5.18,5.18,0,0,0,1.8,7.17,4.46,4.46,0,0,1,1.82-6.11c-1.77,2.84-.62,6.36,2.46,6.51-2.63-3.92.4-5.88.4-5.88a4.46,4.46,0,0,0,1.39,4.82,4.35,4.35,0,0,1-.11-1,4.3,4.3,0,0,1,4.3-4.3h.32a12.76,12.76,0,0,1-.17-12.13Z"/><path class="cls-8" d="M203,147.87a1.92,1.92,0,0,0,.41,3.07,2,2,0,0,0,2.47,0h0c1.63-1.51,3.49-1.21,5.45-.84-1.8-.77-3.43-1.34-5.36-.54h0l-.09,0h0l-.19,0a1.74,1.74,0,0,1-2-.87,1.39,1.39,0,0,1,.39-1.58A2.34,2.34,0,0,0,203,147.87Z"/></svg>