<svg id="Layer_1" data-name="Layer 1" xmlns="http://www.w3.org/2000/svg" viewBox="0 0 135.35 125.14"><defs><style>.cls-1{fill:#332425;}.cls-2{fill:#e6371f;}.cls-3{fill:#fff;}.cls-4{fill:#4a3c3b;}</style></defs><title>vieraslajit_logo_141020</title><path class="cls-1" d="M33.94,127l-5.1,14.22H26.2l-5-14.22h2.58l3.51,10.79a6.75,6.75,0,0,1,.26,1.2h0a6.06,6.06,0,0,1,.28-1.22L31.44,127Z" transform="translate(-21.18 -16.31)"/><path class="cls-1" d="M39.48,127v1.9h-1.3v10.41h1.3v1.91H34.53v-1.91h1.29V128.9H34.53V127Z" transform="translate(-21.18 -16.31)"/><path class="cls-1" d="M49.67,141.22h-8V127h7.67v2H44.05v4h4.89v2H44.05v4.2h5.62Z" transform="translate(-21.18 -16.31)"/><path class="cls-1" d="M63.19,141.22H60.43l-2.27-3.81a10,10,0,0,0-.6-.9,4.32,4.32,0,0,0-.59-.61,2.08,2.08,0,0,0-.66-.34,2.56,2.56,0,0,0-.81-.11h-1v5.77H52.2V127h4.68a6.66,6.66,0,0,1,1.84.24,4.3,4.3,0,0,1,1.47.72,3.37,3.37,0,0,1,1,1.2,3.85,3.85,0,0,1,.35,1.68,4.08,4.08,0,0,1-.22,1.38,3.55,3.55,0,0,1-.64,1.12,3.68,3.68,0,0,1-1,.84,4.86,4.86,0,0,1-1.3.53v0a4,4,0,0,1,.67.48c.19.18.38.36.55.54s.34.4.51.63l.56.82Zm-8.64-12.31v4.62h2a3,3,0,0,0,1-.16,2.5,2.5,0,0,0,.8-.49,2.18,2.18,0,0,0,.52-.77,2.61,2.61,0,0,0,.19-1,2,2,0,0,0-.64-1.6,2.73,2.73,0,0,0-1.86-.58Z" transform="translate(-21.18 -16.31)"/><path class="cls-1" d="M76.52,141.22H73.93l-1.28-3.62H67.06l-1.23,3.62H63.26L68.58,127h2.65ZM72,135.68l-2-5.67a6,6,0,0,1-.19-.9h0a6.28,6.28,0,0,1-.2.9l-1.95,5.67Z" transform="translate(-21.18 -16.31)"/><path class="cls-1" d="M77.82,140.65v-2.43a3.84,3.84,0,0,0,.78.54,6.15,6.15,0,0,0,1,.4,7.83,7.83,0,0,0,1,.25,5.41,5.41,0,0,0,.94.09,4,4,0,0,0,2.21-.49,1.62,1.62,0,0,0,.73-1.44,1.59,1.59,0,0,0-.24-.88,2.74,2.74,0,0,0-.68-.68,7.4,7.4,0,0,0-1-.59l-1.26-.59q-.72-.39-1.35-.78a5.67,5.67,0,0,1-1.09-.88,3.92,3.92,0,0,1-.72-1.08,3.49,3.49,0,0,1-.26-1.42,3.27,3.27,0,0,1,.45-1.74,3.85,3.85,0,0,1,1.19-1.22,5.29,5.29,0,0,1,1.68-.71,7.77,7.77,0,0,1,1.92-.24,7.68,7.68,0,0,1,3.25.51v2.33a5.18,5.18,0,0,0-3.11-.87,6.2,6.2,0,0,0-1,.09,3.42,3.42,0,0,0-.93.33,2.12,2.12,0,0,0-.67.59,1.43,1.43,0,0,0-.25.86,1.63,1.63,0,0,0,.19.82,2.31,2.31,0,0,0,.58.64,6.14,6.14,0,0,0,.94.56c.36.18.79.38,1.27.59a15.57,15.57,0,0,1,1.4.81,6.43,6.43,0,0,1,1.16.94,4.25,4.25,0,0,1,.8,1.15,3.41,3.41,0,0,1,.29,1.43,3.53,3.53,0,0,1-.44,1.82,3.48,3.48,0,0,1-1.17,1.21,5.36,5.36,0,0,1-1.7.68,9.54,9.54,0,0,1-2,.2,7.46,7.46,0,0,1-.87,0c-.35,0-.7-.09-1.07-.16a9.71,9.71,0,0,1-1-.25A3.19,3.19,0,0,1,77.82,140.65Z" transform="translate(-21.18 -16.31)"/><path class="cls-1" d="M97.4,141.22H89.53V127h2.36v12.22H97.4Z" transform="translate(-21.18 -16.31)"/><path class="cls-1" d="M111.65,141.22h-2.58l-1.28-3.62H102.2L101,141.22H98.39L103.71,127h2.66Zm-4.49-5.54-2-5.67a7.67,7.67,0,0,1-.19-.9h0a5.16,5.16,0,0,1-.2.9l-2,5.67Z" transform="translate(-21.18 -16.31)"/><path class="cls-1" d="M119.14,136.12a5.7,5.7,0,0,1-1.25,3.93,4.24,4.24,0,0,1-3.33,1.4,4.82,4.82,0,0,1-1.6-.22V139a2.59,2.59,0,0,0,1.46.38c1.57,0,2.36-1.21,2.36-3.65V127h2.36Z" transform="translate(-21.18 -16.31)"/><path class="cls-1" d="M126.18,127v1.9h-1.3v10.41h1.3v1.91h-5v-1.91h1.3V128.9h-1.3V127Z" transform="translate(-21.18 -16.31)"/><path class="cls-1" d="M137.51,129h-4.09v12.22h-2.36V129H127v-2h10.52Z" transform="translate(-21.18 -16.31)"/><path class="cls-1" d="M138.47,141.44a1.41,1.41,0,0,1-1-.4,1.23,1.23,0,0,1-.42-.93,1.25,1.25,0,0,1,.42-1,1.37,1.37,0,0,1,1-.4,1.41,1.41,0,0,1,1,.4,1.23,1.23,0,0,1,.43,1,1.2,1.2,0,0,1-.43.93A1.45,1.45,0,0,1,138.47,141.44Z" transform="translate(-21.18 -16.31)"/><path class="cls-1" d="M150.34,129H145v4.28h4.9v2H145v5.95h-2.36V127h7.67Z" transform="translate(-21.18 -16.31)"/><path class="cls-1" d="M156.53,127v1.9h-1.3v10.41h1.3v1.91h-5v-1.91h1.3V128.9h-1.3V127Z" transform="translate(-21.18 -16.31)"/><path class="cls-2" d="M139.45,112.54H37.59a4,4,0,0,1-3.47-6L85.06,18.31a4,4,0,0,1,3.46-2h0a4,4,0,0,1,3.46,2l50.94,88.23a4,4,0,0,1-3.47,6Zm-94.94-8h88l-44-76.23Z" transform="translate(-21.18 -16.31)"/><path class="cls-1" d="M86.66,120.32a1,1,0,0,1-.78-.48c-1.28-2.09-1-4.81-.65-6.53a32.13,32.13,0,0,1-3.74.67h-.14a1,1,0,0,1-.9-1c0-.36,0-1.34,3.86-4.23-1,0-2,.07-2.58.07a3,3,0,0,1-.81-.06,1,1,0,0,1-.73-1c0-1,1.13-2.08,2.49-3l-.29.09a3.68,3.68,0,0,1-1.08.24,1.24,1.24,0,0,1-.74-.27,1,1,0,0,1-.23-1.2c.67-1.34,3-2.54,4.89-3.36a2.12,2.12,0,0,1-.11-.21,1.06,1.06,0,0,1,.29-1.15c.24-.21.47-.4.68-.56l-.52,0a7.87,7.87,0,0,0-3.19.76,4.1,4.1,0,0,1-.87.3.55.55,0,0,1-.18,0,1,1,0,0,1-.88-.54,2.24,2.24,0,0,1,.45-2.29A33.74,33.74,0,0,0,73,95.63,1,1,0,0,1,72,95a1,1,0,0,1,.26-1.1,9.87,9.87,0,0,1,5.18-2l-.13-.1a1,1,0,0,1,.44-1.8,5.84,5.84,0,0,1,.73,0,5.49,5.49,0,0,1,.58,0,1,1,0,0,1-.36-1.14,1,1,0,0,1,1-.68h.11a18.15,18.15,0,0,1,4.68,1.12,1,1,0,0,1,.9-1.43.85.85,0,0,1,.23,0c4.87,1.16,6.72,3.1,7.42,4.33a5.56,5.56,0,0,1,1.09-.11,8,8,0,0,1,1.88.25c.94-.86,3-2,7-2q.72,0,1.53.06a1,1,0,0,1,.91.77,1,1,0,0,1-.22.89c.36,0,.75,0,1.17,0a20.21,20.21,0,0,1,3.57.35,1,1,0,0,1,.81,1,1,1,0,0,1-.69,1,5.73,5.73,0,0,1,1.17.39,1,1,0,0,1-.11,1.86l-.2.06a9.42,9.42,0,0,1,4.24,3.41,1,1,0,0,1-.09,1.11,1,1,0,0,1-.78.38.92.92,0,0,1-.29,0A32.32,32.32,0,0,0,106.1,100a2.26,2.26,0,0,1-.33,2.33,1,1,0,0,1-.69.28,1,1,0,0,1-.46-.12,3.87,3.87,0,0,1-.73-.55,7.25,7.25,0,0,0-3.34-1.8c.16.23.32.48.48.76a1.07,1.07,0,0,1,0,1,1.29,1.29,0,0,1-.2.25c1.42,1.32,3.12,3.4,3.07,5.78a1,1,0,0,1-.43.8,1,1,0,0,1-.57.18,1,1,0,0,1-.33-.06c-.46-.16-2.48-1.24-4.28-2.22.76,2,1.47,4.56.85,6a1.06,1.06,0,0,1-.57.53,1,1,0,0,1-.77,0,19.89,19.89,0,0,1-2.94-2.29,28.54,28.54,0,0,1-.07,4.27A1,1,0,0,1,94,116l-.25,0c-.27,0-.66,0-2.88-1.57-3.12,5.88-3.56,5.88-4.17,5.88Z" transform="translate(-21.18 -16.31)"/><path class="cls-3" d="M85.37,88.86c6.68,1.59,7.08,4.61,7.08,4.61a3.25,3.25,0,0,1,1.66-.35,7.32,7.32,0,0,1,2.2.37l.13-.17c.6-.65,2.31-2,6.53-2,.46,0,1,0,1.47,0-4.68,2.66-3.53,3.4-3.53,3.4S102.22,93,106.36,93a18.62,18.62,0,0,1,3.38.34,17.34,17.34,0,0,0-5.53,2.11,18.92,18.92,0,0,1,3.58-.38,7.25,7.25,0,0,1,3,.52c-1.38.44-3,.92-3,.92s5,1.33,6.45,4A31.38,31.38,0,0,0,105.46,99c-.57,0-.85,0-.85,0s1.07,2,.47,2.59c-.64-.34-2.31-2.61-6-2.61l-.8,0c-.41.09.63.23,1.88,2.37,0,.08-.15.12-.47.12a6.05,6.05,0,0,1-1.52-.21l.33.26h-.07s4.55,2.92,4.47,6.39c-.69-.25-6.69-3.57-6.69-3.57s2.89,5.86,2,7.85a48.77,48.77,0,0,1-4.66-3.9,24.91,24.91,0,0,1,.24,6.69h0A21.47,21.47,0,0,1,90.56,113s-3.32,6.36-3.82,6.36h0c-1.76-2.88-.11-7.34-.11-7.34s-4.45,1-5.14,1h0c0-1.25,6.21-5.4,6.21-5.4s-4.35.21-5.93.21a5,5,0,0,1-.55,0c.08-1.4,4.39-3.84,7.5-5A26.14,26.14,0,0,0,81.31,104a.11.11,0,0,1-.08,0c1-1.94,7.1-3.89,7.1-3.89l0,0h-.2c-1.08,0-2.28-.36-2.11-.5,1.9-1.67,2.93-1.5,2.58-1.7a8,8,0,0,0-3.08-.63,11.78,11.78,0,0,0-4.24,1.08C81,97.64,82.65,96,82.65,96s-3-1.34-9.69-1.4c2-1.77,6-1.9,7.14-1.9h.33s-1.35-.91-2.51-1.74a3.81,3.81,0,0,1,.59,0c2.5,0,5.71,1.84,5.71,1.84a16.42,16.42,0,0,0-4.54-3.63c6.92.81,7.89,4,7.89,4s1.35-.38-2.2-4.27m0-2a2,2,0,0,0-1.72,1l-.05.08a20.1,20.1,0,0,0-3.69-.75l-.24,0a2,2,0,0,0-1.89,1.35,3,3,0,0,0-.1.49h0A2,2,0,0,0,76,90.51a1.81,1.81,0,0,0,0,.65,9.49,9.49,0,0,0-4.31,2A2,2,0,0,0,73,96.63a35.51,35.51,0,0,1,6.47.59,2.58,2.58,0,0,0,.14,2,2,2,0,0,0,1.77,1.08,2.19,2.19,0,0,0,.36,0,5.32,5.32,0,0,0,1.08-.37,9.39,9.39,0,0,1,1.29-.47v.15c-1.94.89-3.91,2.08-4.62,3.5a2,2,0,0,0,.47,2.4l.18.13a3.39,3.39,0,0,0-.9,2,2,2,0,0,0,1.47,2,2.85,2.85,0,0,0,.78.1c-2,1.81-2,2.62-2,3.14a2,2,0,0,0,1.8,2h.24a17.36,17.36,0,0,0,2.51-.39,9.15,9.15,0,0,0,1,5.78,2,2,0,0,0,1.57.95h.14c1.34,0,2-.85,3.84-4.2.24-.42.47-.84.68-1.23C93,117,93.36,117,93.78,117a2,2,0,0,0,2-1.82c.07-.77.1-1.5.12-2.17a8.69,8.69,0,0,0,1.46,1,2,2,0,0,0,.85.19,2.06,2.06,0,0,0,.7-.12,2,2,0,0,0,1.13-1.07,7,7,0,0,0,0-4.31c1.08.57,1.91,1,2.22,1.1a2,2,0,0,0,.67.12,2,2,0,0,0,1.14-.35,2,2,0,0,0,.86-1.61,8.66,8.66,0,0,0-2.82-6s0-.1,0-.15a8.62,8.62,0,0,1,1.11.85,4.85,4.85,0,0,0,.92.68,2,2,0,0,0,2.31-.33,2.65,2.65,0,0,0,.79-2,35.16,35.16,0,0,1,6.44,1.35,2,2,0,0,0,.58.09,2,2,0,0,0,1.56-.75,2,2,0,0,0,.18-2.23,8.91,8.91,0,0,0-3.38-3.15,2.06,2.06,0,0,0,.16-.66,2,2,0,0,0-1.11-1.91,1.8,1.8,0,0,0,0-.52,2,2,0,0,0-1.63-1.91A20.8,20.8,0,0,0,106.4,91s0,0,0-.06a2,2,0,0,0-1.82-1.55c-.55,0-1.09-.06-1.6-.06-3.84,0-6,1-7.24,1.94a8.39,8.39,0,0,0-1.62-.16,5.53,5.53,0,0,0-.59,0c-1-1.4-3.17-3.15-7.69-4.22a1.76,1.76,0,0,0-.46-.06Z" transform="translate(-21.18 -16.31)"/><path class="cls-1" d="M102.75,62.1a1.18,1.18,0,0,0,0-2.35,1.18,1.18,0,0,0,0,2.35Z" transform="translate(-21.18 -16.31)"/><path class="cls-1" d="M99.48,60.33a1.18,1.18,0,0,0,0-2.35,1.18,1.18,0,0,0,0,2.35Z" transform="translate(-21.18 -16.31)"/><path class="cls-1" d="M97.55,63.77a1.18,1.18,0,0,0,0-2.35,1.18,1.18,0,0,0,0,2.35Z" transform="translate(-21.18 -16.31)"/><path class="cls-1" d="M103.73,65.09a1.18,1.18,0,0,0,0-2.35,1.18,1.18,0,0,0,0,2.35Z" transform="translate(-21.18 -16.31)"/><path class="cls-4" d="M99.87,65.41a.3.3,0,0,0,0-.59.3.3,0,0,0,0,.59Z" transform="translate(-21.18 -16.31)"/><path class="cls-4" d="M99.78,59.42a.3.3,0,0,0,0-.59.3.3,0,0,0,0,.59Z" transform="translate(-21.18 -16.31)"/><path class="cls-4" d="M99.37,59.21a.3.3,0,0,0,0-.59.3.3,0,0,0,0,.59Z" transform="translate(-21.18 -16.31)"/><path class="cls-4" d="M100.06,65.81a.3.3,0,0,0,0-.59.3.3,0,0,0,0,.59Z" transform="translate(-21.18 -16.31)"/><path class="cls-4" d="M100.09,65.31a.3.3,0,0,0,0-.59.3.3,0,0,0,0,.59Z" transform="translate(-21.18 -16.31)"/><path class="cls-4" d="M99.6,59.11a.3.3,0,0,0,0-.59.3.3,0,0,0,0,.59Z" transform="translate(-21.18 -16.31)"/><path class="cls-1" d="M86.69,65.16a1.25,1.25,0,0,0,0-2.5,1.25,1.25,0,0,0,0,2.5Z" transform="translate(-21.18 -16.31)"/><path class="cls-1" d="M86.83,61.55a1.26,1.26,0,0,0,0-2.51,1.26,1.26,0,0,0,0,2.51Z" transform="translate(-21.18 -16.31)"/><path class="cls-1" d="M89.82,59.6a1.26,1.26,0,0,0,0-2.51,1.26,1.26,0,0,0,0,2.51Z" transform="translate(-21.18 -16.31)"/><path class="cls-1" d="M94,62.16a1.25,1.25,0,0,0,0-2.5,1.25,1.25,0,0,0,0,2.5Z" transform="translate(-21.18 -16.31)"/><path class="cls-1" d="M83.34,64.11a1.25,1.25,0,0,0,0-2.5,1.25,1.25,0,0,0,0,2.5Z" transform="translate(-21.18 -16.31)"/><path class="cls-1" d="M80.93,60.62a1.25,1.25,0,0,0,0-2.5,1.25,1.25,0,0,0,0,2.5Z" transform="translate(-21.18 -16.31)"/><path class="cls-1" d="M77.46,61.34a1.25,1.25,0,0,0,0-2.5,1.25,1.25,0,0,0,0,2.5Z" transform="translate(-21.18 -16.31)"/><path class="cls-1" d="M77.34,65.48a1.25,1.25,0,0,0,0-2.5,1.25,1.25,0,0,0,0,2.5Z" transform="translate(-21.18 -16.31)"/><path class="cls-1" d="M76.91,69.4a1.25,1.25,0,0,0,0-2.5,1.25,1.25,0,0,0,0,2.5Z" transform="translate(-21.18 -16.31)"/><path class="cls-1" d="M74.17,66a1.25,1.25,0,0,0,0-2.5,1.25,1.25,0,0,0,0,2.5Z" transform="translate(-21.18 -16.31)"/><path class="cls-1" d="M70.09,67.59a1.25,1.25,0,0,0,0-2.5,1.25,1.25,0,0,0,0,2.5Z" transform="translate(-21.18 -16.31)"/><path class="cls-1" d="M69.25,71.07a1.25,1.25,0,0,0,0-2.5,1.25,1.25,0,0,0,0,2.5Z" transform="translate(-21.18 -16.31)"/><path class="cls-1" d="M72,73.79a1.25,1.25,0,0,0,0-2.5,1.25,1.25,0,0,0,0,2.5Z" transform="translate(-21.18 -16.31)"/><path class="cls-1" d="M76.83,78.54a1.25,1.25,0,0,0,0-2.5,1.25,1.25,0,0,0,0,2.5Z" transform="translate(-21.18 -16.31)"/><path class="cls-1" d="M72.3,77.74a1.25,1.25,0,0,0,0-2.5,1.25,1.25,0,0,0,0,2.5Z" transform="translate(-21.18 -16.31)"/><path class="cls-1" d="M69.8,81.27a1.25,1.25,0,0,0,0-2.5,1.25,1.25,0,0,0,0,2.5Z" transform="translate(-21.18 -16.31)"/><path class="cls-1" d="M72.34,84.91a1.25,1.25,0,0,0,0-2.5,1.25,1.25,0,0,0,0,2.5Z" transform="translate(-21.18 -16.31)"/><path class="cls-1" d="M110,72.09a1.18,1.18,0,0,0,0-2.36,1.18,1.18,0,0,0,0,2.36Z" transform="translate(-21.18 -16.31)"/><path class="cls-1" d="M108.31,68.71a1.18,1.18,0,0,0,0-2.35,1.18,1.18,0,0,0,0,2.35Z" transform="translate(-21.18 -16.31)"/><path class="cls-1" d="M104.78,70.36a1.18,1.18,0,0,0,0-2.35,1.18,1.18,0,0,0,0,2.35Z" transform="translate(-21.18 -16.31)"/><path class="cls-1" d="M108.6,75a1.18,1.18,0,0,0,0-2.35,1.18,1.18,0,0,0,0,2.35Z" transform="translate(-21.18 -16.31)"/><path class="cls-4" d="M105.24,72.91a.3.3,0,0,0,0-.59.3.3,0,0,0,0,.59Z" transform="translate(-21.18 -16.31)"/><path class="cls-4" d="M108.57,68a.3.3,0,0,0,0-.59.3.3,0,0,0,0,.59Z" transform="translate(-21.18 -16.31)"/><path class="cls-4" d="M108.35,67.57a.3.3,0,0,0,0-.59.3.3,0,0,0,0,.59Z" transform="translate(-21.18 -16.31)"/><path class="cls-4" d="M105.17,73.35a.3.3,0,0,0,0-.59.3.3,0,0,0,0,.59Z" transform="translate(-21.18 -16.31)"/><path class="cls-4" d="M105.48,73a.3.3,0,0,0,0-.59.3.3,0,0,0,0,.59Z" transform="translate(-21.18 -16.31)"/><path class="cls-4" d="M108.59,67.61a.29.29,0,0,0,0-.58.29.29,0,0,0,0,.58Z" transform="translate(-21.18 -16.31)"/><path class="cls-1" d="M109.31,70.94a6.91,6.91,0,0,1-2,.57,6.49,6.49,0,0,0-1.36.56,25.22,25.22,0,0,1,2.36-3.28c.25-.28-.17-.7-.41-.41a24.68,24.68,0,0,0-2.42,3.34c0-.63,0-1.25-.1-1.87,0-.37-.62-.37-.59,0,.07.79.11,1.58.13,2.36a.52.52,0,0,0-.13.06,61.44,61.44,0,0,1-11.48,6.6,31.05,31.05,0,0,0,3.25-5.58,54.9,54.9,0,0,0,3.66-7.76l3.41-1a.3.3,0,0,0-.16-.57l-3,.93A6.94,6.94,0,0,1,101.75,63a4.5,4.5,0,0,0,1-1.42c.14-.35-.43-.5-.57-.15A6.9,6.9,0,0,1,100.9,63a6.9,6.9,0,0,0-.73,1.19,26.86,26.86,0,0,1,.07-4.11c0-.38-.55-.37-.59,0a27,27,0,0,0-.07,4.12c-.38-.51-.76-1-1.17-1.5-.24-.29-.66.12-.41.41.49.59,1,1.2,1.42,1.82a.45.45,0,0,0-.11.19,52.44,52.44,0,0,1-3.3,7c-.91,1.75-2,4.38-3.48,6.06.86-5.06-.62-10-1.27-15.08a20.9,20.9,0,0,0,2.93-2c.31-.26-.13-.7-.44-.44a19.91,19.91,0,0,1-2.7,1.86l0,0a.3.3,0,0,0,0-.14,27.42,27.42,0,0,1-.43-3.5c0-.4-.65-.41-.63,0a30.63,30.63,0,0,0,.44,3.56c-1-.8-2-1.58-3-2.33-.32-.25-.63.3-.32.54.9.67,1.78,1.38,2.65,2.09-.83.23-1.67.43-2.52.58-.4.07-.23.67.16.6,1-.17,1.9-.4,2.83-.66.69,5.37,2.39,10.7,1,16.09,0,0,0,.06-.07.09l-.52-.08c-2.06-1.78-3.56-4.68-4.91-6.86A55.31,55.31,0,0,1,81,63.76s0,0,0,0a12.62,12.62,0,0,1,1.6-.33c.4-.05.4-.67,0-.62a12.07,12.07,0,0,0-1.57.3,27.92,27.92,0,0,0,.58-3.39c0-.4-.58-.4-.63,0a25.73,25.73,0,0,1-.61,3.49A25.13,25.13,0,0,1,78,60.06c-.22-.33-.77,0-.54.32a26.88,26.88,0,0,0,2.42,3.1,9.3,9.3,0,0,0-2.09.28c-.39.09-.23.7.17.6a9.26,9.26,0,0,1,2.16-.27,56.8,56.8,0,0,0,5.2,9.61,46.32,46.32,0,0,0,3.41,5.06,38.92,38.92,0,0,1-6.27-3.22c-2.52-1.46-5.37-3.07-7.28-5.32a.23.23,0,0,0,0-.12.49.49,0,0,0,0-.12.11.11,0,0,0,.08,0A16.33,16.33,0,0,0,77,68.65c.31-.25-.13-.69-.44-.44a17.66,17.66,0,0,1-1.49,1.08c-.11-1.3-.26-2.6-.46-3.9-.07-.39-.67-.23-.61.17.23,1.45.4,2.91.5,4.38-1.2-1.17-2.35-2.37-3.45-3.63-.26-.3-.7.14-.44.44,1,1.13,2,2.2,3.08,3.25-1.28-.38-2.56-.74-3.86-1-.39-.09-.55.51-.16.6,1.34.32,2.67.68,4,1.09-.45.27-.9.54-1.34.83s0,.77.32.54c.56-.37,1.14-.73,1.73-1.08,2.13,2.52,5.41,4.33,8.23,5.92a32.22,32.22,0,0,0,7.16,3.32,35.65,35.65,0,0,1-5,.33,31.32,31.32,0,0,1-8.54-.3h0l.78-2.61a.31.31,0,0,0-.6-.17l-.79,2.62v0c-.92-1.15-1.86-2.28-2.85-3.37-.27-.29-.71.15-.44.45.9,1,1.77,2,2.62,3.09a18.68,18.68,0,0,0-4.71-.5.31.31,0,0,0,0,.62,18.7,18.7,0,0,1,4.88.55h.1a16.79,16.79,0,0,0-2.86,2c-.3.26.14.7.45.44A15.91,15.91,0,0,1,76,81.26a34.41,34.41,0,0,0,9.56.29A27.12,27.12,0,0,0,90.93,81c.13,7,2.56,14.53,4.26,21.15a1,1,0,0,0,1.93-.53c-1.72-6.69-4.25-14.45-4.2-21.42a64.1,64.1,0,0,0,12.41-7l3.39,1.17c.36.12.51-.44.16-.57l-3-1A7.12,7.12,0,0,1,108,72a4.12,4.12,0,0,0,1.58-.5C109.92,71.24,109.63,70.73,109.31,70.94Zm-33.84,9.9h0Z" transform="translate(-21.18 -16.31)"/></svg>