<svg id="Layer_1" data-name="Layer 1" xmlns="http://www.w3.org/2000/svg" viewBox="0 0 241.76 65.79"><defs><style>.cls-1{fill:#54585a;}</style></defs><title>vieraslajit_logo_tharm_141020</title><path class="cls-1" d="M113,57.59l-6,16.8h-3.12l-5.93-16.8h3l4.15,12.75a7.87,7.87,0,0,1,.3,1.41h0a8.22,8.22,0,0,1,.34-1.44l4.24-12.72Z" transform="translate(-16.19 -13)"/><path class="cls-1" d="M119.58,57.59v2.25H118v12.3h1.54v2.25h-5.86V72.14h1.53V59.84h-1.53V57.59Z" transform="translate(-16.19 -13)"/><path class="cls-1" d="M131.62,74.39h-9.43V57.59h9.06V60H125v4.76h5.78v2.36H125v5h6.64Z" transform="translate(-16.19 -13)"/><path class="cls-1" d="M147.6,74.39h-3.26l-2.68-4.5a10.78,10.78,0,0,0-.71-1.06,4.41,4.41,0,0,0-.71-.72,2.24,2.24,0,0,0-.78-.41,3.05,3.05,0,0,0-.94-.13h-1.13v6.82h-2.78V57.59h5.53a7.88,7.88,0,0,1,2.18.28,4.88,4.88,0,0,1,1.74.85,3.94,3.94,0,0,1,1.15,1.41,4.45,4.45,0,0,1,.42,2,4.82,4.82,0,0,1-.27,1.64,4.11,4.11,0,0,1-.75,1.32,4.33,4.33,0,0,1-1.17,1,5.92,5.92,0,0,1-1.54.63v0a4.08,4.08,0,0,1,.8.57c.23.21.44.42.64.64a6.68,6.68,0,0,1,.61.74c.2.28.42.6.66,1ZM137.39,59.85v5.46h2.32a3.5,3.5,0,0,0,1.19-.2,2.64,2.64,0,0,0,.94-.57,2.45,2.45,0,0,0,.62-.92,3.11,3.11,0,0,0,.23-1.21,2.41,2.41,0,0,0-.76-1.88,3.17,3.17,0,0,0-2.2-.68Z" transform="translate(-16.19 -13)"/><path class="cls-1" d="M163.36,74.39H160.3l-1.51-4.28h-6.61l-1.45,4.28h-3L154,57.59h3.14Zm-5.31-6.55-2.33-6.7a6.89,6.89,0,0,1-.22-1.06h-.05a6.32,6.32,0,0,1-.24,1.06l-2.3,6.7Z" transform="translate(-16.19 -13)"/><path class="cls-1" d="M164.89,73.72V70.85a4.15,4.15,0,0,0,.92.63,7.52,7.52,0,0,0,1.13.48,8.77,8.77,0,0,0,1.2.3,6.41,6.41,0,0,0,1.1.1,4.71,4.71,0,0,0,2.62-.58,1.92,1.92,0,0,0,.86-1.7,1.86,1.86,0,0,0-.28-1,3.08,3.08,0,0,0-.81-.8,8.41,8.41,0,0,0-1.21-.7l-1.49-.7c-.57-.3-1.11-.61-1.6-.92a6.67,6.67,0,0,1-1.28-1,4.57,4.57,0,0,1-.86-1.28,4.34,4.34,0,0,1-.31-1.68,3.8,3.8,0,0,1,.54-2.05,4.41,4.41,0,0,1,1.4-1.45,6.35,6.35,0,0,1,2-.84,9.6,9.6,0,0,1,2.27-.28,9.19,9.19,0,0,1,3.85.6v2.76a6.14,6.14,0,0,0-3.68-1,6.43,6.43,0,0,0-1.24.11,3.67,3.67,0,0,0-1.1.39,2.31,2.31,0,0,0-.79.69,1.65,1.65,0,0,0-.31,1,1.89,1.89,0,0,0,.24,1,2.28,2.28,0,0,0,.68.75,6.52,6.52,0,0,0,1.1.66c.44.22.94.45,1.51.7s1.14.63,1.66,1A8,8,0,0,1,174.37,67a4.82,4.82,0,0,1,.94,1.35,4,4,0,0,1,.34,1.69,4,4,0,0,1-1.9,3.59,6.22,6.22,0,0,1-2,.8,11.63,11.63,0,0,1-2.4.24c-.29,0-.63,0-1-.06s-.83-.11-1.26-.19a10.36,10.36,0,0,1-1.22-.3A4.11,4.11,0,0,1,164.89,73.72Z" transform="translate(-16.19 -13)"/><path class="cls-1" d="M188,74.39h-9.31V57.59h2.79V72H188Z" transform="translate(-16.19 -13)"/><path class="cls-1" d="M204.89,74.39h-3.06l-1.51-4.28h-6.61l-1.45,4.28h-3l6.29-16.8h3.14Zm-5.31-6.55-2.33-6.7a8.38,8.38,0,0,1-.22-1.06H197a7.72,7.72,0,0,1-.23,1.06l-2.31,6.7Z" transform="translate(-16.19 -13)"/><path class="cls-1" d="M213.74,68.37A6.7,6.7,0,0,1,212.26,73a5,5,0,0,1-3.94,1.66,5.54,5.54,0,0,1-1.88-.27V71.78a3,3,0,0,0,1.72.45c1.86,0,2.79-1.43,2.79-4.31V57.59h2.79Z" transform="translate(-16.19 -13)"/><path class="cls-1" d="M222.06,57.59v2.25h-1.54v12.3h1.54v2.25H216.2V72.14h1.53V59.84H216.2V57.59Z" transform="translate(-16.19 -13)"/><path class="cls-1" d="M235.45,60h-4.83V74.39h-2.78V60H223V57.59h12.43Z" transform="translate(-16.19 -13)"/><path class="cls-1" d="M236.59,74.65a1.73,1.73,0,0,1-1.2-.46,1.5,1.5,0,0,1-.49-1.11,1.55,1.55,0,0,1,.49-1.13,1.78,1.78,0,0,1,2.41,0,1.52,1.52,0,0,1,.5,1.13,1.48,1.48,0,0,1-.5,1.11A1.74,1.74,0,0,1,236.59,74.65Z" transform="translate(-16.19 -13)"/><path class="cls-1" d="M250.63,60h-6.28v5h5.79v2.36h-5.79v7h-2.79V57.59h9.07Z" transform="translate(-16.19 -13)"/><path class="cls-1" d="M257.94,57.59v2.25h-1.53v12.3h1.53v2.25h-5.86V72.14h1.54V59.84h-1.54V57.59Z" transform="translate(-16.19 -13)"/><path class="cls-1" d="M86.7,71.19,53.85,14.29a2.58,2.58,0,0,0-4.47,0L16.53,71.19a2.58,2.58,0,0,0,2.23,3.86H45.84v-.27c0-.34,0-.86,1.28-2a1.64,1.64,0,0,1-.5,0l-1-.27.06-1a2.22,2.22,0,0,1,.58-1.28L46.15,70,46,69.9H23.23L51.61,20.74,80,69.9h-18a4.27,4.27,0,0,1,.33,1.68l0,1.78-1.68-.59c-.2-.07-.74-.35-1.44-.72a4.55,4.55,0,0,1,0,2.78l-.1.22H84.46a2.58,2.58,0,0,0,2.24-3.86Z" transform="translate(-16.19 -13)"/><path class="cls-1" d="M58.93,44.47" transform="translate(-16.19 -13)"/><path class="cls-1" d="M59.06,44.73" transform="translate(-16.19 -13)"/><path class="cls-1" d="M59.08,44.41" transform="translate(-16.19 -13)"/><path class="cls-1" d="M62.4,49.31" transform="translate(-16.19 -13)"/><path class="cls-1" d="M62.35,49.59" transform="translate(-16.19 -13)"/><path class="cls-1" d="M62.55,49.34" transform="translate(-16.19 -13)"/><path class="cls-1" d="M68.22,66.65c-1-1.71-4.15-2.57-4.15-2.57L66,63.49c-1.48-.7-4.25-.09-4.25-.09A11,11,0,0,1,65.3,62c-4.41-.82-5.69.93-5.69.93s-.75-.48,2.27-2.19c-3.42-.23-4.73.77-5.16,1.24a.38.38,0,0,0-.08.11,5.48,5.48,0,0,0-1.09-.23,32.74,32.74,0,0,1-1.1-7.71,41.35,41.35,0,0,0,8-4.51l1.3.45a.81.81,0,0,0,.8.79.81.81,0,0,0,0-1.62.8.8,0,0,0-.72.46l-1-.35a4.48,4.48,0,0,1,1.37-.53c.23-.05.45-.09.67-.16a.79.79,0,0,0,.59.26.81.81,0,1,0-.81-.81.71.71,0,0,0,0,.21c-.3.1-.62.13-.93.21a4.55,4.55,0,0,0-.88.37,15.5,15.5,0,0,1,1.51-2.1l.1,0a.83.83,0,1,0-.47-.16,16,16,0,0,0-1.45,2c0-.36,0-.71,0-1.07a.78.78,0,0,0,.34-.63.81.81,0,1,0-.81.8l.1,0c0,.41.05.83.06,1.24l-.08,0a40,40,0,0,1-7.4,4.25,20.15,20.15,0,0,0,2.1-3.6,36.38,36.38,0,0,0,2.35-5v0h0l1.69-.52a.79.79,0,1,0-.16-.46s0,.07,0,.11l-1.39.43a4.54,4.54,0,0,1,.79-1.23,3.65,3.65,0,0,0,.45-.52.58.58,0,0,0,.19,0,.83.83,0,1,0-.52-.2c-.2.26-.46.49-.66.74a4.34,4.34,0,0,0-.47.76,16,16,0,0,1,0-2.59.79.79,0,0,0,.4-.68.81.81,0,1,0-.81.8h0a17.11,17.11,0,0,0,0,2.48c-.21-.27-.41-.54-.62-.8a.76.76,0,0,0,0-.27.81.81,0,1,0-.81.81.77.77,0,0,0,.53-.21c.26.31.51.62.74.94a.54.54,0,0,0-.07.13A32.86,32.86,0,0,1,56.44,49a18.63,18.63,0,0,1-2.24,3.9c.56-3.26-.4-6.45-.82-9.72a13.91,13.91,0,0,0,1.3-.86.76.76,0,0,0,.5.19.81.81,0,1,0-.75-.5,13.37,13.37,0,0,1-1.18.78l0,0a.17.17,0,0,0,0-.1,16.3,16.3,0,0,1-.24-2,.77.77,0,0,0,.32-.63.81.81,0,1,0-.8.81l.09,0c0,.62.12,1.23.23,1.84L51.3,41.55a1,1,0,0,0,.05-.23.81.81,0,1,0-.81.81.79.79,0,0,0,.56-.23c.45.34.89.68,1.32,1-.45.12-.9.23-1.36.32a.79.79,0,0,0-.66-.37.81.81,0,0,0,0,1.62.81.81,0,0,0,.81-.81s0,0,0-.06c.51-.1,1-.22,1.52-.37.45,3.47,1.54,6.9.65,10.38l0,.06L53,53.66a18.92,18.92,0,0,1-3.17-4.43,34.7,34.7,0,0,1-3-5.63s0,0,0,0c.25-.07.5-.12.75-.17a.78.78,0,0,0,.7.44.81.81,0,1,0-.8-.83c-.21,0-.42.08-.63.14.12-.53.21-1.06.29-1.59a.81.81,0,1,0-.41,0c-.08.55-.18,1.1-.31,1.64-.44-.49-.85-1-1.24-1.54a.81.81,0,0,0,.14-.43.85.85,0,1,0-.43.7A18.66,18.66,0,0,0,46,43.42a5.63,5.63,0,0,0-.92.1.79.79,0,0,0-.69-.42.81.81,0,1,0,.8.81,6.25,6.25,0,0,1,1-.1A37.51,37.51,0,0,0,49.52,50a30.22,30.22,0,0,0,2.2,3.27,27.05,27.05,0,0,1-4-2.08A17.87,17.87,0,0,1,43,47.77a.11.11,0,0,0,0-.08v-.08l0,0c.23-.15.46-.3.68-.47a.75.75,0,0,0,.43.15.81.81,0,1,0-.8-.81.87.87,0,0,0,.09.36l-.49.34c-.07-.75-.16-1.51-.27-2.26a.82.82,0,0,0,.45-.72.81.81,0,0,0-1.62,0,.8.8,0,0,0,.78.8c.13.87.23,1.73.29,2.6-.72-.7-1.42-1.43-2.08-2.18a.8.8,0,0,0,0-.15.81.81,0,1,0-.81.81.8.8,0,0,0,.59-.27q.84.95,1.74,1.83c-.72-.22-1.44-.41-2.18-.59a.79.79,0,0,0-.76-.57.81.81,0,0,0,0,1.61.78.78,0,0,0,.77-.62c.73.18,1.45.37,2.16.59l-.77.48a.87.87,0,0,0-.32-.06.81.81,0,1,0,0,1.61.81.81,0,0,0,.81-.81.76.76,0,0,0-.17-.46c.3-.2.6-.39.91-.57a19.16,19.16,0,0,0,5.31,3.82,21.15,21.15,0,0,0,4.62,2.14,24.84,24.84,0,0,1-3.2.21,20.33,20.33,0,0,1-5.51-.19h0L44,53.13h0a.81.81,0,1,0-.8-.8.79.79,0,0,0,.4.68l-.33,1.1v0c-.49-.62-1-1.23-1.53-1.82a.81.81,0,0,0,.19-.5.81.81,0,0,0-1.62,0,.81.81,0,0,0,.81.81.77.77,0,0,0,.3-.06c.48.55,1,1.1,1.42,1.67a12,12,0,0,0-2.6-.31.79.79,0,0,0-.77-.66.81.81,0,1,0,0,1.62.8.8,0,0,0,.75-.56,11.48,11.48,0,0,1,2.73.35h.06a10.5,10.5,0,0,0-1.53,1,.75.75,0,0,0-.36-.1.81.81,0,1,0,0,1.61.8.8,0,0,0,.81-.8.75.75,0,0,0-.15-.44,10.68,10.68,0,0,1,1.72-1.1,22,22,0,0,0,6.17.19,17.91,17.91,0,0,0,3.45-.36,34,34,0,0,0,1.1,7.35l-.12,0s-.26-1.94-4.57-3C51.87,61.65,51,61.89,51,61.89s-.62-2-5.09-2.55a10.51,10.51,0,0,1,2.93,2.34s-2.42-1.39-4.06-1.17c.75.54,1.62,1.13,1.62,1.13s-3.33-.12-4.82,1.22a17.17,17.17,0,0,1,6.25.91s-1.09,1-.85,1.49A5.73,5.73,0,0,1,51.69,65c.24.13-.43,0-1.66,1.1-.11.1.77.35,1.49.32l0,0s-4,1.25-4.58,2.51a20,20,0,0,1,4.81-.78c-2,.72-4.79,2.29-4.84,3.19.26.07,4.18-.12,4.18-.12s-4,2.68-4,3.48c.33,0,3.35-.64,3.35-.64s-1.07,2.88.06,4.74c.32,0,2.47-4.11,2.47-4.11A12.51,12.51,0,0,0,55,76a16,16,0,0,0-.15-4.32,30.67,30.67,0,0,0,3,2.52c.56-1.28-1.3-5.06-1.3-5.06s3.87,2.14,4.32,2.3c0-2.24-2.89-4.12-2.89-4.12h.05l-.22-.17c.64.17,1.35.17,1.29.06-.81-1.39-1.48-1.47-1.21-1.53a5.56,5.56,0,0,1,4.38,1.66c.38-.37-.31-1.67-.31-1.67A17.36,17.36,0,0,1,68.22,66.65Zm-25-12Z" transform="translate(-16.19 -13)"/></svg>